<svg xmlns="http://www.w3.org/2000/svg" xmlns:xlink="http://www.w3.org/1999/xlink" viewBox="0 0 451.77 512.63"><defs><style>.cls-1{isolation:isolate;}.cls-2{fill:#b3b3b3;}.cls-15,.cls-2,.cls-23,.cls-31,.cls-33,.cls-35,.cls-36,.cls-47{opacity:0.31;}.cls-3{opacity:0.27;fill:url(#linear-gradient);}.cls-23,.cls-26,.cls-3,.cls-35,.cls-36,.cls-37,.cls-39,.cls-40,.cls-41,.cls-44,.cls-45,.cls-46,.cls-47,.cls-5,.cls-8{mix-blend-mode:multiply;}.cls-4{fill:#ffba6e;}.cls-6{fill:url(#linear-gradient-2);}.cls-7{fill:#f2f2f2;}.cls-37,.cls-8{opacity:0.17;}.cls-9{fill:url(#linear-gradient-3);}.cls-10{fill:#5a00ff;}.cls-11{fill:#f9ad62;}.cls-12{fill:#33536a;}.cls-13{opacity:0.48;}.cls-13,.cls-15,.cls-42,.cls-43,.cls-48,.cls-50{mix-blend-mode:screen;}.cls-14{fill:#16344d;}.cls-16{fill:url(#linear-gradient-4);}.cls-17{fill:#ffdad3;}.cls-18{fill:#e6e6e6;}.cls-19,.cls-21,.cls-22,.cls-25,.cls-30,.cls-33,.cls-34{fill:#fff;}.cls-20,.cls-28,.cls-29{fill:#00e5ff;}.cls-20,.cls-22{opacity:0.37;}.cls-21{opacity:0.57;}.cls-23{fill:url(#linear-gradient-5);}.cls-24{fill:#ccc;}.cls-25{opacity:0.62;}.cls-26{opacity:0.35;}.cls-27{fill:url(#linear-gradient-6);}.cls-28,.cls-51,.cls-52{stroke:#00e5ff;}.cls-28,.cls-30,.cls-51,.cls-52,.cls-53{stroke-miterlimit:10;}.cls-30,.cls-53{stroke:#fff;}.cls-32{fill:url(#linear-gradient-7);}.cls-34{opacity:0.44;}.cls-35{fill:url(#linear-gradient-8);}.cls-36{fill:url(#linear-gradient-9);}.cls-37{fill:url(#linear-gradient-10);}.cls-38{fill:#4405dd;}.cls-39{opacity:0.7;fill:url(#linear-gradient-11);}.cls-40,.cls-41,.cls-45{opacity:0.38;}.cls-40{fill:url(#linear-gradient-12);}.cls-41{fill:url(#linear-gradient-13);}.cls-42,.cls-43{opacity:0.06;}.cls-42{fill:url(#linear-gradient-14);}.cls-43{fill:url(#linear-gradient-15);}.cls-44{opacity:0.39;fill:url(#linear-gradient-16);}.cls-45{fill:url(#linear-gradient-17);}.cls-46{fill:url(#linear-gradient-18);}.cls-47{fill:url(#linear-gradient-19);}.cls-49{fill:url(#linear-gradient-20);}.cls-50{opacity:0.69;fill:url(#linear-gradient-21);}.cls-51,.cls-52,.cls-53{fill:none;}.cls-51{opacity:0.29;}.cls-52{opacity:0.5;}</style><linearGradient id="linear-gradient" x1="420.46" y1="353.71" x2="359.56" y2="311.15" gradientUnits="userSpaceOnUse"><stop offset="0" stop-color="#fff" stop-opacity="0"/><stop offset="1"/></linearGradient><linearGradient id="linear-gradient-2" x1="300.28" y1="225.44" x2="313.66" y2="225.44" gradientUnits="userSpaceOnUse"><stop offset="0" stop-color="#fff" stop-opacity="0"/><stop offset="1" stop-color="#fbb03b"/></linearGradient><linearGradient id="linear-gradient-3" x1="217.83" y1="447.04" x2="262.3" y2="447.04" xlink:href="#linear-gradient"/><linearGradient id="linear-gradient-4" x1="316.54" y1="83.19" x2="371.73" y2="83.19" gradientUnits="userSpaceOnUse"><stop offset="0" stop-color="#f7931e"/><stop offset="1" stop-color="#fff" stop-opacity="0"/></linearGradient><linearGradient id="linear-gradient-5" x1="361.55" y1="259.64" x2="400.11" y2="259.64" xlink:href="#linear-gradient"/><linearGradient id="linear-gradient-6" x1="261.2" y1="258.25" x2="396.15" y2="258.25" xlink:href="#linear-gradient-2"/><linearGradient id="linear-gradient-7" x1="356.6" y1="62.22" x2="388.16" y2="62.22" gradientUnits="userSpaceOnUse"><stop offset="0" stop-color="#fff" stop-opacity="0"/><stop offset="0.37" stop-color="#fcd7ab" stop-opacity="0"/><stop offset="1" stop-color="#f7931e"/></linearGradient><linearGradient id="linear-gradient-8" x1="329.83" y1="244.71" x2="309.76" y2="238.03" xlink:href="#linear-gradient"/><linearGradient id="linear-gradient-9" x1="363.34" y1="330.99" x2="303.95" y2="296.94" xlink:href="#linear-gradient"/><linearGradient id="linear-gradient-10" x1="355.46" y1="177.91" x2="401.43" y2="177.91" xlink:href="#linear-gradient"/><linearGradient id="linear-gradient-11" x1="378.78" y1="356.84" x2="298.72" y2="337.55" xlink:href="#linear-gradient"/><linearGradient id="linear-gradient-12" x1="235.16" y1="305.67" x2="241.7" y2="298.02" xlink:href="#linear-gradient"/><linearGradient id="linear-gradient-13" x1="268.87" y1="325.8" x2="274.71" y2="318.97" xlink:href="#linear-gradient"/><linearGradient id="linear-gradient-14" x1="152.75" y1="441.67" x2="229.52" y2="351.88" gradientUnits="userSpaceOnUse"><stop offset="0" stop-color="#fff" stop-opacity="0"/><stop offset="1" stop-color="#fff"/></linearGradient><linearGradient id="linear-gradient-15" x1="211.1" y1="318.75" x2="229.62" y2="318.75" xlink:href="#linear-gradient-14"/><linearGradient id="linear-gradient-16" x1="365.11" y1="195.48" x2="400.26" y2="195.48" gradientUnits="userSpaceOnUse"><stop offset="0" stop-color="#fff" stop-opacity="0"/><stop offset="1" stop-color="#16344d"/></linearGradient><linearGradient id="linear-gradient-17" x1="315.95" y1="162.63" x2="365.11" y2="162.63" xlink:href="#linear-gradient-16"/><linearGradient id="linear-gradient-18" x1="335.71" y1="143.23" x2="355.46" y2="143.23" xlink:href="#linear-gradient-2"/><linearGradient id="linear-gradient-19" x1="181.37" y1="271.31" x2="285.72" y2="271.31" xlink:href="#linear-gradient"/><linearGradient id="linear-gradient-20" x1="92.19" y1="487.85" x2="133.71" y2="487.85" xlink:href="#linear-gradient-14"/><linearGradient id="linear-gradient-21" x1="348.56" y1="284.44" x2="262.43" y2="272.12" xlink:href="#linear-gradient-14"/></defs><title>Character</title><g class="cls-1"><g id="Layer_2" data-name="Layer 2"><g id="Layer_1-2" data-name="Layer 1"><path class="cls-2" d="M274.78,373.9a42.06,42.06,0,0,0,18.75,13c20,6.93,30.1-5.56,46.08-13.75,9.25-4.74,19.65-1.41,28.67,2.33,21.57,8.94,43.31-13.55,57.63-26.54,10.89-9.89,20.6-23,24.46-37.37,2.36-8.78,2.11-20.31-3.69-27.79-12.69-16.37-38.43-6.27-53.34-4.4-26.12,3.26-38.26,10.49-58.35-7.13a69.68,69.68,0,0,0-26.74-14.74c-16-4.35-30.24,1.84-36.17,17.75-3.11,8.32-4,17.26,1,25,3.3,5.14,9.85,8.83,10.24,15.47.38,6.45-5.41,12-10.33,15.2a37.33,37.33,0,0,0-3.67,2.71C251.54,348.56,266,362.77,274.78,373.9Z"/><path class="cls-3" d="M395.07,274.47s42.95-9.62,51.61,9.35c7.32,16-16.91,65.91-42.11,76.29-3.92,1.62-9.9,2.9-16.81,3.82a154.88,154.88,0,0,1-75.05-8.85L268.79,338.5l56.38-25.76Z"/><polygon class="cls-4" points="303.58 189.72 289.55 262.34 303.58 259.94 313.66 222.01 303.58 189.72"/><g class="cls-5"><polygon class="cls-6" points="313.66 222.34 303.58 190.05 303.1 192.54 310.16 218.39 300.28 260.84 303.58 260.27 313.66 222.34"/></g><path class="cls-7" d="M132.43,463.06s-43.35,17.26-40.3,39.77c2.57,19.08,37.06,7.28,54.55-9.68a24.65,24.65,0,0,0,7.49-17.72v-3.17Z"/><g class="cls-5"><path class="cls-7" d="M146.68,494.06a24.65,24.65,0,0,0,7.49-17.72v-3.17"/><path class="cls-7" d="M149,471.51v3.17a24.71,24.71,0,0,1-7.49,17.72,78.84,78.84,0,0,1-25.44,16"/></g><path class="cls-7" d="M239.25,424.6s-25,16.09-24,35.81c.84,17.29,16,13,39.59-7.71a21.84,21.84,0,0,0,6.94-21h0a11.08,11.08,0,0,0-12.51-8.62Z"/><g class="cls-8"><path class="cls-9" d="M261.76,431.69h0a10.72,10.72,0,0,0-9.42-8.67,11.37,11.37,0,0,1,3.32,5.49,21.85,21.85,0,0,1-6.95,21c-13.36,11.72-24,18.18-30.88,18.44,4.94,7.46,18.29,1.12,37.39-15.64A21,21,0,0,0,261.76,431.69Z"/></g><path class="cls-4" d="M135.42,452.21s-1.12,13.77-9.43,18,1.82,25.95,15,18.24,16.81-22.83,16.81-22.83S137.75,468.81,135.42,452.21Z"/><path class="cls-10" d="M281.26,340.48l6.75,4.44c14.16,8.17,31.64,9,47.95,7.81,66.41-4.73,59.21-91.56,64.89-140.53,3.84-33.15-10.94-52.66-23.63-63a52.34,52.34,0,0,0-36.48-12c-10.59.7-22.36,4.77-27.08,18.24-9.43,26.95-18.05,31.22-4.06,58s9.45,47.71-20.66,48,26.74,29.24,31.92,49.92c4.18,16.75,5.46,37.3-14.36,32.92-4.66-1-10-1.76-17.28-6.15Z"/><path class="cls-4" d="M336,142.86s-15.81,5.27-5.27,22.71,45.83-10.14,41.37-15.82-20.28-6.89-20.28-6.89Z"/><path class="cls-11" d="M336,133.93v15.82a6.64,6.64,0,0,0,2.36,5.11c3.76,3.13,11.28,7.35,17.11-2.27l0-18.66Z"/><path class="cls-4" d="M360.75,116.29a31,31,0,0,1-4.53,16.54c-3.49,5.51-8.69,9-14.5,9-10.51,0-19-11.43-19-25.54s-2-25.55,8.52-25.55c7,0,18.6,2.33,25,9.92C359.41,104.44,360.75,111.6,360.75,116.29Z"/><path class="cls-12" d="M150.63,417.82s-24.74,14.6-15.82,36.09,36.09,13.38,44.2-7.7a39.81,39.81,0,0,0,1.63-16.63Z"/><g class="cls-13"><path class="cls-12" d="M138.17,449c-3.56-8.59-1.75-16.07,1.71-22-5.55,6.37-10.4,15.89-5.63,27.38,8.18,19.71,31.69,14.52,41.79-2.73C164.71,464.39,145.42,466.46,138.17,449Z"/></g><path class="cls-14" d="M309.55,294.28s-85.92,23.37-158.92,123.54c0,0-15.41,22.3,8.51,30.82,9.74,2,17-10.54,21.5-19.06S249.78,346,289.22,338.13l.48.27a53,53,0,0,0,23.73,6.29c4.6.17,18.54,1.19,21-4.07a7.85,7.85,0,0,0,.53-3.23C335.18,317.29,322.84,307,309.55,294.28Z"/><path class="cls-14" d="M336.92,65.93c-11.48,4.5-25.86,17.77-18.25,30.89,4.09,7,15.39,6.66,22.3,5.13,4.26-1,11.11-3.42,13,2.28,1.11,3.27.66,7.16-.2,10.5-1.59,6.13,1.47,11.22,7.42,12.89,8.79,2.47,15.23-5.46,18.28-13.3,4.85-12.42,2.35-26.64-5.34-37.09-7.94-10.8-22.44-15.92-35.11-12.06C338.37,65.39,337.65,65.64,336.92,65.93Z"/><g class="cls-15"><path class="cls-16" d="M326.56,102.32c-3.31-.82-6.21-2.44-7.89-5.33-7.61-13.12,6.77-26.39,18.25-30.89.73-.29,1.45-.54,2.15-.76,11.46-3.49,24.42.39,32.66,9.16-1.26-1.35-4.57-2.08-6.3-2.59a32.45,32.45,0,0,0-7.37-1.29,30.15,30.15,0,0,0-7.47.48c-2.49.47-4.89.63-7.39,1a14.13,14.13,0,0,0-5.85,2.24c-2.72,1.9-3.74,4.84-5.17,7.69a6.17,6.17,0,0,1-3.05,3.17c-2.76,1.06-4.77,2.28-5.18,5.58C323.41,95.12,328,97.78,326.56,102.32Z"/></g><path class="cls-14" d="M243.82,326.7s3.34-16.67,20.78-19.11c6.35-.88,10.36-2.31,19.06-3.12a52.2,52.2,0,0,0,25.89-10.19s-28-24.26-25.89-28.14-66.52-1-70.17,43-2,44-2,44Z"/><path class="cls-14" d="M244.54,363.46s8.28,16.24,2.61,23.13-18.25,18.66-30.82,0Z"/><path class="cls-4" d="M228.56,412.67s3.95,13.54,4.17,20.5c.09,2.83,2.31,8.76,7.89,9,8.13.36,17.5-4.83,15.45-13.21C252.61,414.84,254,409,254,409S245.15,415.11,228.56,412.67Z"/><path class="cls-12" d="M246.79,368.76s3.8-3,5.93,2.81,18.72,40-13.22,43.31-23.17-28.29-23.17-28.29c6.64,6.23,16,12.48,24.22,5.08,4.34-3.89,7.83-10,7.66-15.95C248.19,375,246.78,368.77,246.79,368.76Z"/><polygon class="cls-17" points="268.66 312.08 268.66 306.92 276.51 305.4 283.66 304.47 268.66 312.08"/><polygon class="cls-12" points="373.72 232.97 364.12 230.73 372.8 228.44 373.72 232.97"/><path class="cls-18" d="M238.76,251.54l16.31-9.75a6.61,6.61,0,0,1,6.58-.13l78.86,43.27L283.12,316.1l-50.19-56.29Z"/><polygon class="cls-19" points="340.51 284.93 340.51 290.63 285.72 322.6 283.12 316.1 340.51 284.93"/><path class="cls-20" d="M225.43,225.22,196,151.68a11.11,11.11,0,0,0-4.73-5.48L86.81,85.68a1.56,1.56,0,0,0-2.22,2l28.34,67.75a11.61,11.61,0,0,0,4.76,5.48Z"/><path class="cls-21" d="M143.42,169.36,122,115.82a8.05,8.05,0,0,0-3.45-4L99.66,100.46a1.13,1.13,0,0,0-1.61,1.42l20.63,49.33a8.46,8.46,0,0,0,3.46,4Z"/><path class="cls-22" d="M180.53,191.81l-21.42-53.54a8.05,8.05,0,0,0-3.45-4l-18.89-11.37a1.13,1.13,0,0,0-1.61,1.42l20.63,49.33a8.51,8.51,0,0,0,3.46,4Z"/><path class="cls-22" d="M204.67,190.4l-11-30.05a8.08,8.08,0,0,0-3.45-4L171.29,145a1.14,1.14,0,0,0-1.62,1.43l10.26,25.83a8.45,8.45,0,0,0,3.46,4Z"/><path class="cls-20" d="M154.13,103.62,132.32,49.09A8.19,8.19,0,0,0,128.81,45L51.35.16A1.16,1.16,0,0,0,49.7,1.61l21,50.24a8.59,8.59,0,0,0,3.52,4.06Z"/><path class="cls-23" d="M391,299.7s-35.82-32-28.47-46.15c13.06-25.11,37.57-34,37.57-34s-1.72,30.86-3.59,47.32C394.86,281.55,392,296.3,391,299.7Z"/><polyline class="cls-24" points="280.64 309.9 316.54 288.35 253.63 250.81 245.19 255.27 262.89 265.52 279.44 307.19"/><polyline class="cls-25" points="278.25 304.19 305.51 287.81 253.92 255.99 250.07 258.09 262.89 265.52 277.11 301.32"/><polygon class="cls-24" points="283.12 255.44 273.55 260.57 296.19 274.08 305.51 268.76 283.12 255.44"/><polygon class="cls-25" points="283.12 257.41 276.64 260.79 289.68 268.57 295.88 265.02 283.12 257.41"/><path class="cls-4" d="M372.79,228.44s16.76,53.11-71.24,37.73c-8.52,0-23.89-11.54-22.29-7.68s7.49,7.68,7.49,7.68-25.55-8.29-25.55-2.61,10.19,14.52,29.33,18.51,74.06,7.85,91.93-9.79c18.45-18.22,12.91-50.63,12.91-50.63Z"/><g class="cls-26"><path class="cls-27" d="M382.46,268c-17.87,17.65-72.8,13.79-91.93,9.8-15.95-3.33-25.68-10-28.48-15.45a1.51,1.51,0,0,0-.85,1.37c0,5.68,10.19,14.52,29.33,18.51s74.06,7.85,91.93-9.79c12.33-12.18,13.94-30.69,13.66-41.63C395.83,241.89,393.25,257.39,382.46,268Z"/></g><circle class="cls-28" cx="83.6" cy="155.94" r="3"/><circle class="cls-28" cx="109.22" cy="172.6" r="3"/><line class="cls-28" x1="86.28" y1="157.28" x2="107.13" y2="171.16"/><path class="cls-20" d="M104.52,266,82.71,211.44a8.19,8.19,0,0,0-3.51-4.06L1.74,162.51A1.16,1.16,0,0,0,.09,164l21,50.23a8.67,8.67,0,0,0,3.52,4.07Z"/><circle class="cls-29" cx="192.12" cy="107.73" r="5"/><circle class="cls-29" cx="150.88" cy="197.43" r="5"/><line class="cls-30" x1="180.12" y1="134.16" x2="152.69" y2="193.59"/><line class="cls-28" x1="190.96" y1="110.91" x2="180.12" y2="134.16"/><circle class="cls-29" cx="120.69" cy="179.08" r="2.54"/><circle class="cls-29" cx="135.06" cy="188.39" r="4.37"/><path class="cls-14" d="M388.43,60.08c0-8.15-10.07-10-18.5-10s-13.61,4.5-13.61,12.65a15,15,0,0,0,15.27,14.75C380,77.48,388.43,68.23,388.43,60.08Z"/><g class="cls-31"><path class="cls-32" d="M373.7,54.2c5.08,0,10.75.68,14.46,3-2.2-5.61-10.68-7-18-7-8.43,0-13.6,4.5-13.6,12.65a14.55,14.55,0,0,0,5.57,11.39,14.29,14.29,0,0,1-2.07-7.39C360.1,58.7,365.27,54.2,373.7,54.2Z"/></g><path class="cls-22" d="M43.83,223.68l-15-37.51a5.66,5.66,0,0,0-2.42-2.8l-13.23-8a.79.79,0,0,0-1.13,1L26.5,211a5.85,5.85,0,0,0,2.43,2.79Z"/><path class="cls-22" d="M93.23,62.22l-15-37.51a5.66,5.66,0,0,0-2.41-2.79L62.58,14a.79.79,0,0,0-1.13,1L75.9,49.5a5.92,5.92,0,0,0,2.43,2.8Z"/><path class="cls-22" d="M117.8,76l-12-28.66a5.64,5.64,0,0,0-2.42-2.79l-13.23-8c-.66-.38,10,24.09,2.94,8.12l7.4,18.58a5.85,5.85,0,0,0,2.42,2.8Z"/><path class="cls-22" d="M141.72,90.86l-9.08-20.54a5.66,5.66,0,0,0-2.41-2.79l-13.24-8c-.66-.38,7.07,16,0,0l7.4,18.59a6,6,0,0,0,2.42,2.79Z"/><polygon class="cls-33" points="85.47 230.06 80.63 216.25 38.29 191.83 43.61 204.7 85.47 230.06"/><polygon class="cls-34" points="92.47 251.71 87.63 237.9 45.29 213.49 50.61 226.35 92.47 251.71"/><path class="cls-35" d="M313.66,222s33,25.2-3.63,33.43c0,0,9.17-9.79,6.62-22.47Z"/><polygon class="cls-36" points="286.37 323.04 358.69 293.39 345.71 284.71 340.51 284.93 340.51 290.63 286.37 323.04"/><path class="cls-37" d="M355.46,137.91v5.38s26.22-1.3,40.69,38.83a85.14,85.14,0,0,1,2.68,13.43l1.43,22.35s9.45-46.78-25.31-70.51C370.68,142.86,355.46,137.91,355.46,137.91Z"/><path class="cls-38" d="M365.06,230.73c.5,0,35.05-11.15,35.05-11.15s2.93-48.74-16.86-50.73C352.56,165.75,365.06,230.73,365.06,230.73Z"/><path class="cls-39" d="M289.22,338.13a58.45,58.45,0,0,0,22.6,6.48c6.37.52,13.67.63,21.32-2.42,23.62-9.44,30.47,1.77,30.47,1.77s-14,10.89-41.08,9.17c0,0-29.44-.25-41.27-12.65Z"/><path class="cls-40" d="M220.52,289.81,248.47,317s7.64-8.15,12.8-8.68l-37.39-22.55Z"/><path class="cls-41" d="M262.75,316.45l8.59,11.38s9.22-4.7,14.38-5.23l-17.06-10.52Z"/><path class="cls-42" d="M280.87,319.75c-4.71,2.84-38.74,12.44-64.54,33.4-31.55,25.62-63.24,61-70.45,81.58,0,0-8.22-9,45.77-64.76,0,0,29-31.64,77-57.89Z"/><path class="cls-43" d="M229.62,289.09s-13.7,9.27-9.1,56.63l-9.42,6s1.87-45.87,4.1-51.36,3.79-11.05,8.68-14.69Z"/><path class="cls-44" d="M383.25,168.85c-10-1-15.37,5.16-18.14,14a15.6,15.6,0,0,1,9.84-1.92c14.23,1.43,16.71,27.06,17,41.33l8.18-2.64S403,170.84,383.25,168.85Z"/><path class="cls-45" d="M336,142.86s-28.8,6-17.29,31,46.44-13.2,46.44-13.2-16.93,14.62-30.18,9c0,0-11.44-8-7-19.58C327.93,150.16,330.2,143.88,336,142.86Z"/><path class="cls-46" d="M355.46,133.93s-10.94,17-18.9,18.6c0,0-1.4-8.17-.6-11.89C336,140.64,346.66,146.62,355.46,133.93Z"/><path class="cls-18" d="M285.72,322.6,264,268.15a8.26,8.26,0,0,0-3.51-4l-77.33-44.8a1.16,1.16,0,0,0-1.65,1.45l21,50.15A8.55,8.55,0,0,0,206,275Z"/><path class="cls-47" d="M285.72,323,264,268.6a8.29,8.29,0,0,0-3.51-4.06l-77.33-44.8a1.16,1.16,0,0,0-1.65,1.45l21,50.16a8.64,8.64,0,0,0,3.52,4.06Z"/><circle class="cls-19" cx="235.49" cy="267.54" r="1.61"/><circle class="cls-19" cx="229.98" cy="274.2" r="1.61"/><rect class="cls-19" x="229.19" y="270.64" width="6.85" height="0.92" transform="translate(-124.54 277.76) rotate(-50.44)"/><g class="cls-48"><path class="cls-49" d="M103.76,498.38c-2.07-15.31,17.33-28.2,30-34.87l-1.06-.45s-43.34,17.26-40.3,39.77c1.79,13.25,19,11.6,35.15,3.69C115.47,509.93,105.13,508.5,103.76,498.38Z"/></g><path class="cls-50" d="M183.11,219.74l70.2,22.55a10.86,10.86,0,0,1,11.34-.2l32,18.75s10.29-1.16,14.92-7.29h0a63.86,63.86,0,0,0,25.82,16.33l31.38,10.48-28.23,4.57L283.12,316.1l-20.23-50.58Z"/><polyline class="cls-51" points="116.95 147.08 123.22 137.08 130.86 148.25 141.86 130.25 150.88 152.94 157.8 141.83"/><polyline class="cls-52" points="99.53 112.73 116.15 155.34 152.69 177.91"/><circle class="cls-29" cx="123.22" cy="137.19" r="1.52"/><circle class="cls-29" cx="150.88" cy="152.94" r="1.52"/><circle class="cls-29" cx="68.31" cy="151.62" r="5"/><line class="cls-30" x1="56.31" y1="178.04" x2="38.88" y2="214.16"/><line class="cls-28" x1="67.14" y1="154.79" x2="51.14" y2="189.15"/><circle class="cls-19" cx="37.07" cy="217.99" r="5"/><polyline class="cls-53" points="67.36 23.15 90.29 46.65 101 38.65 131.43 72.56 137.38 64.06"/><circle class="cls-19" cx="90.29" cy="46.65" r="2.67"/><circle class="cls-19" cx="100.89" cy="39.25" r="2.67"/><circle class="cls-19" cx="130.69" cy="72.56" r="2.67"/><circle class="cls-19" cx="67.57" cy="23.15" r="2.67"/></g></g></g></svg>