<svg xmlns="http://www.w3.org/2000/svg" xmlns:xlink="http://www.w3.org/1999/xlink" viewBox="0 0 423.88 608.58"><defs><style>.cls-1{isolation:isolate;}.cls-2{opacity:0.15;}.cls-11,.cls-17,.cls-18,.cls-19,.cls-24,.cls-3,.cls-7,.cls-8{opacity:0.35;}.cls-11,.cls-14,.cls-16,.cls-17,.cls-18,.cls-19,.cls-24,.cls-25,.cls-3,.cls-7,.cls-8{mix-blend-mode:multiply;}.cls-3{fill:url(#linear-gradient);}.cls-4{fill:#16344d;}.cls-36,.cls-40,.cls-5{fill:#00e5ff;}.cls-6{fill:#5a00ff;}.cls-7{fill:url(#linear-gradient-2);}.cls-8{fill:url(#linear-gradient-3);}.cls-10,.cls-19,.cls-26,.cls-27,.cls-30,.cls-31,.cls-32,.cls-35,.cls-38,.cls-39,.cls-9{fill:none;}.cls-26,.cls-9{stroke:#5a00ff;}.cls-10,.cls-19,.cls-27,.cls-30,.cls-31,.cls-32,.cls-36,.cls-38,.cls-40,.cls-41,.cls-9{stroke-miterlimit:10;}.cls-27,.cls-30,.cls-31,.cls-32,.cls-34,.cls-35,.cls-9{stroke-width:2px;}.cls-10,.cls-27,.cls-30,.cls-31,.cls-32,.cls-34,.cls-35,.cls-36{stroke:#00e5ff;}.cls-11{fill:url(#linear-gradient-4);}.cls-12,.cls-21,.cls-23,.cls-34,.cls-41,.cls-42{fill:#fff;}.cls-12{opacity:0.34;}.cls-13{fill:#4605e5;}.cls-14{opacity:0.47;fill:url(#linear-gradient-5);}.cls-15{fill:#6238e5;}.cls-16{opacity:0.75;fill:url(#linear-gradient-6);}.cls-17{fill:#fbb03b;}.cls-18{fill:url(#linear-gradient-7);}.cls-19{stroke:#fbb03b;}.cls-20{fill:#4205d8;}.cls-21{opacity:0.32;}.cls-22{opacity:0.78;}.cls-24{fill:url(#linear-gradient-8);}.cls-25{opacity:0.16;fill:url(#linear-gradient-9);}.cls-26,.cls-34,.cls-35,.cls-39,.cls-42{stroke-linecap:round;stroke-linejoin:round;}.cls-26,.cls-38,.cls-39,.cls-40{stroke-width:3px;}.cls-27,.cls-29{opacity:0.31;}.cls-28{fill:#48ecff;}.cls-31{stroke-dasharray:5.12 5.12;}.cls-32{stroke-dasharray:5.57 5.57;}.cls-33,.cls-37{fill:#a6f6ff;}.cls-37{opacity:0.49;}.cls-38,.cls-39,.cls-40,.cls-41,.cls-42{stroke:#fff;}.cls-42{stroke-width:1.5px;}</style><linearGradient id="linear-gradient" x1="203.57" y1="598.97" x2="203.4" y2="561.22" gradientUnits="userSpaceOnUse"><stop offset="0" stop-color="#fff" stop-opacity="0"/><stop offset="1" stop-color="#5a00ff"/></linearGradient><linearGradient id="linear-gradient-2" x1="271.14" y1="386.96" x2="267.03" y2="363.52" gradientUnits="userSpaceOnUse"><stop offset="0" stop-color="#fff" stop-opacity="0"/><stop offset="1" stop-color="#f7931e"/></linearGradient><linearGradient id="linear-gradient-3" x1="-522.41" y1="554.16" x2="-526.52" y2="530.72" gradientTransform="translate(665.53 -161.14)" xlink:href="#linear-gradient-2"/><linearGradient id="linear-gradient-4" x1="159.2" y1="288.63" x2="243.88" y2="288.63" xlink:href="#linear-gradient-2"/><linearGradient id="linear-gradient-5" x1="204.16" y1="332" x2="204.11" y2="326.59" xlink:href="#linear-gradient-2"/><linearGradient id="linear-gradient-6" x1="163.69" y1="405.89" x2="255.47" y2="405.89" gradientUnits="userSpaceOnUse"><stop offset="0" stop-color="#fff"/><stop offset="1" stop-color="#5a00ff"/></linearGradient><linearGradient id="linear-gradient-7" x1="204.8" y1="432.08" x2="203.91" y2="465.86" xlink:href="#linear-gradient-2"/><linearGradient id="linear-gradient-8" x1="204.12" y1="477.96" x2="204.15" y2="470.12" xlink:href="#linear-gradient-2"/><linearGradient id="linear-gradient-9" x1="204.87" y1="333.16" x2="204.43" y2="343.24" xlink:href="#linear-gradient-2"/></defs><title>Robot</title><g class="cls-1"><g id="Layer_2" data-name="Layer 2"><g id="Shadow"><g class="cls-2"><path class="cls-3" d="M263.83,608.58H140.92l1.25-53.05A12.85,12.85,0,0,1,155,542.14c24.05.06,74.12,0,98.15-.09a12.85,12.85,0,0,1,12.87,13.4Z"/><path class="cls-4" d="M179.89,504.41H229a0,0,0,0,1,0,0v19.38a18.47,18.47,0,0,1-18.47,18.47H198.36a18.47,18.47,0,0,1-18.47-18.47V504.41A0,0,0,0,1,179.89,504.41Z" transform="translate(408.89 1046.68) rotate(180)"/><rect class="cls-5" x="187.75" y="530.75" width="31.24" height="2.82" transform="translate(406.75 1064.32) rotate(180)"/><rect class="cls-5" x="188.5" y="520.52" width="31.24" height="2.82" transform="translate(408.23 1043.86) rotate(180)"/><path class="cls-6" d="M229,526.72h15.54a0,0,0,0,1,0,0v15.54a0,0,0,0,1,0,0h-7.42a8.13,8.13,0,0,1-8.13-8.13v-7.42A0,0,0,0,1,229,526.72Z" transform="translate(473.55 1068.99) rotate(180)"/><path class="cls-6" d="M172.47,526.72h7.42a0,0,0,0,1,0,0v15.54a0,0,0,0,1,0,0H164.34a0,0,0,0,1,0,0v-7.42A8.13,8.13,0,0,1,172.47,526.72Z"/></g></g><g id="Right_Sleeve" data-name="Right Sleeve"><rect class="cls-6" x="260.29" y="361.11" width="17.48" height="27.58" rx="7.94" ry="7.94"/><rect class="cls-7" x="260.29" y="361.11" width="17.48" height="27.58" rx="7.94" ry="7.94"/></g><g id="Left_Sleeve" data-name="Left Sleeve"><rect class="cls-6" x="131.19" y="361.1" width="17.48" height="27.58" rx="7.94" ry="7.94" transform="translate(103.12 773.35) rotate(-154.26)"/><rect class="cls-8" x="131.2" y="361.11" width="17.48" height="27.58" rx="7.94" ry="7.94" transform="translate(176.73 -23.57) rotate(25.74)"/></g><g id="Top"><line class="cls-9" x1="210.13" y1="254.37" x2="217.04" y2="236.6"/><circle class="cls-5" cx="218.48" cy="232.97" r="4.26"/></g><g id="Splash"><line class="cls-10" x1="211.56" y1="226.88" x2="208.04" y2="223.23"/><line class="cls-10" x1="220.71" y1="224.18" x2="222.64" y2="219.5"/><line class="cls-10" x1="227.03" y1="231.75" x2="231.96" y2="230.58"/></g><g id="Body"><path class="cls-6" d="M191.17,251.79h30.34a32,32,0,0,1,32,32v31a12.5,12.5,0,0,1-12.5,12.5H171.7a12.5,12.5,0,0,1-12.5-12.5v-31a32,32,0,0,1,32-32Z"/><path class="cls-11" d="M169.28,317.51c0-32.68,27.56-59.17,61.55-59.17h0c4.07,0,9.5.6,13,2-6-4.34-14.68-8.55-23.14-8.55h-22.5c-21,0-38.87,8.39-38.87,28.61l-.17,31.18c0,5.9,7.55,12.08,11.52,13.89a30.3,30.3,0,0,1-1.44-7.35Z"/><path class="cls-12" d="M198.48,266.26h16.07a23.67,23.67,0,0,1,23.67,23.67v25.45a0,0,0,0,1,0,0H174.81a0,0,0,0,1,0,0V289.93A23.67,23.67,0,0,1,198.48,266.26Z"/><circle class="cls-5" cx="195.41" cy="278.63" r="3.14"/><circle class="cls-5" cx="221.57" cy="278.63" r="3.14"/><rect class="cls-13" x="185.54" y="327.26" width="37.2" height="6.71"/><rect class="cls-14" x="185.54" y="327.26" width="37.2" height="4.11"/><path class="cls-15" d="M181.63,334h45.68a1.59,1.59,0,0,1,1.59,1.59v6.21a0,0,0,0,1,0,0H180a0,0,0,0,1,0,0v-6.21A1.59,1.59,0,0,1,181.63,334Z"/><path class="cls-6" d="M253.5,470.09H155.43a12.92,12.92,0,0,1-12.91-13.46l4.56-102.46A12.92,12.92,0,0,1,160,341.78h88.95a12.91,12.91,0,0,1,12.91,12.39l4.57,102.46A12.93,12.93,0,0,1,253.5,470.09Z"/><path class="cls-16" d="M253.68,470H155.35a12.93,12.93,0,0,1-12.94-13.45L147,354.16a12.94,12.94,0,0,1,13-12.38h89.18a12.94,12.94,0,0,1,12.95,12.38l4.57,102.4A12.93,12.93,0,0,1,253.68,470Z"/><path class="cls-17" d="M143,444.75H265.92l.49,11.83A12.84,12.84,0,0,1,253.54,470c-24-.06-74.12,0-98.15.09a12.85,12.85,0,0,1-12.87-13.4Z"/><path class="cls-18" d="M142.68,444.75H265.6l.49,11.83A12.85,12.85,0,0,1,253.21,470c-24.05-.06-74.12,0-98.14.09a12.86,12.86,0,0,1-12.88-13.4Z"/><path class="cls-19" d="M168.17,358.69,164,429.75A5.94,5.94,0,0,0,170,436h70.28a5.93,5.93,0,0,0,5.94-6.07l-1.88-71.06a5.93,5.93,0,0,0-5.93-5.8H174.09A5.93,5.93,0,0,0,168.17,358.69Z"/><rect class="cls-20" x="160.06" y="374.73" width="14.75" height="6.92" rx="2.07" ry="2.07"/><rect class="cls-20" x="158.19" y="412.11" width="14.75" height="6.92" rx="2.07" ry="2.07"/><circle class="cls-21" cx="205.83" cy="397.07" r="26.97"/><g class="cls-22"><circle class="cls-23" cx="207.78" cy="382.51" r="5.41"/><circle class="cls-23" cx="189.24" cy="404.92" r="5.41"/><rect class="cls-23" x="186.6" y="392.94" width="23.05" height="3.09" transform="translate(-232.19 295.97) rotate(-50.44)"/></g><g class="cls-22"><circle class="cls-23" cx="229.78" cy="376.72" r="5.41"/><circle class="cls-23" cx="211.24" cy="399.12" r="5.41"/><rect class="cls-23" x="208.6" y="387.15" width="23.05" height="3.09" transform="translate(-219.73 310.83) rotate(-50.44)"/></g><path class="cls-4" d="M179.58,469.85H228.7a0,0,0,0,1,0,0v19.38a18.47,18.47,0,0,1-18.47,18.47H198.05a18.47,18.47,0,0,1-18.47-18.47V469.85A0,0,0,0,1,179.58,469.85Z"/><rect class="cls-5" x="189.59" y="478.54" width="31.24" height="2.82"/><rect class="cls-5" x="188.85" y="488.77" width="31.24" height="2.82"/><path class="cls-6" d="M164,469.85h15.54a0,0,0,0,1,0,0v15.54a0,0,0,0,1,0,0h-7.42a8.13,8.13,0,0,1-8.13-8.13v-7.42A0,0,0,0,1,164,469.85Z"/><path class="cls-6" d="M236.83,469.85h7.42a0,0,0,0,1,0,0v15.54a0,0,0,0,1,0,0H228.7a0,0,0,0,1,0,0V478A8.13,8.13,0,0,1,236.83,469.85Z" transform="translate(472.94 955.24) rotate(-180)"/><rect class="cls-24" x="164.04" y="469.85" width="80.21" height="4.43"/><path class="cls-25" d="M181.74,334h45.78a1.59,1.59,0,0,1,1.59,1.59v6.21a0,0,0,0,1,0,0h-49a0,0,0,0,1,0,0v-6.21A1.59,1.59,0,0,1,181.74,334Z"/></g><g id="Right_Arm" data-name="Right Arm"><polyline class="cls-26" points="269.82 388.69 277.76 421.11 328.75 391.62"/></g><g id="Right_Elbow" data-name="Right Elbow"><circle class="cls-6" cx="278.22" cy="421.11" r="4.54"/></g><g id="Right_Palm" data-name="Right Palm"><circle class="cls-6" cx="333.89" cy="386.04" r="7.84"/></g><g id="Left_Arm" data-name="Left Arm"><polyline class="cls-26" points="135.44 385.42 122.71 411.6 65.01 333.73"/></g><g id="Left_Elbow" data-name="Left Elbow"><circle class="cls-6" cx="122.51" cy="411.22" r="4.54"/></g><g id="Left_Palm" data-name="Left Palm"><circle class="cls-6" cx="65.01" cy="333.97" r="7.84"/></g><g id="Outline_One" data-name="Outline One"><path class="cls-27" d="M27.36,271.26c9.1-115.62,84.79-205.85,176.81-205.85,98.16,0,177.73,102.66,177.73,229.29"/></g><g id="Shape_Two" data-name="Shape Two"><path class="cls-27" d="M62.58,271.39c0-36.35,8.23-70.22,22.42-98.68a180.39,180.39,0,0,1,23.81-36.35"/></g><g id="Shape_Three" data-name="Shape Three"><circle class="cls-28" cx="117.14" cy="127.95" r="6.43"/></g><g id="Shape_Four" data-name="Shape Four"><g class="cls-29"><path class="cls-30" d="M131.79,114.36c.67-.51,1.33-1,2-1.5"/><path class="cls-31" d="M138,109.89a128,128,0,0,1,14.19-8.44,112.6,112.6,0,0,1,100.17-1.89"/><path class="cls-30" d="M254.63,100.67c.74.36,1.49.74,2.23,1.12"/></g></g><g id="Shape_Five" data-name="Shape Five"><circle class="cls-28" cx="273.1" cy="111.39" r="4.97"/></g><g id="Shape_Six" data-name="Shape Six"><g class="cls-29"><path class="cls-30" d="M282.77,119.43c.75.65,1.5,1.31,2.24,2"/><path class="cls-32" d="M289.08,125.21a167.77,167.77,0,0,1,26,32.56"/><path class="cls-30" d="M316.48,160.15c.51.85,1,1.72,1.52,2.58"/></g></g><g id="Shape_Seven" data-name="Shape Seven"><circle class="cls-28" cx="322.93" cy="172.74" r="6.91"/></g><g id="Shape_Eight" data-name="Shape Eight"><path class="cls-27" d="M328,182.75c11.32,26.25,17.76,56.48,17.76,88.64"/></g><g id="Brain"><circle class="cls-33" cx="54.41" cy="224.18" r="54.41"/><circle class="cls-28" cx="54.41" cy="224.18" r="42.36"/><polyline class="cls-34" points="66.22 198.15 76.4 204.02 76.4 212.45 85.09 217.65 85.09 234.43 76.68 239.76 76.68 246.98 61.86 256.32 54.41 251.93 54.5 199.41 61.47 195.41 66.22 198.15"/><polyline class="cls-35" points="65.86 208.22 63.03 210.51 63.03 218.89 69.41 223.04 69.41 231.1 63.03 234.52 63.03 243.54 64.39 245.13"/><line class="cls-35" x1="76.4" y1="212.45" x2="71.85" y2="215.1"/><line class="cls-35" x1="85" y1="227.26" x2="79.75" y2="227.26"/><line class="cls-35" x1="76.5" y1="239.87" x2="72.31" y2="238.21"/><line class="cls-35" x1="54.49" y1="227.26" x2="59.86" y2="227.26"/><polygon class="cls-34" points="54.32 199.41 47.34 195.41 32.41 204.02 32.41 212.45 23.73 217.65 23.73 234.43 32.14 239.76 32.14 246.98 46.95 256.32 54.41 251.93 54.32 199.41"/><polyline class="cls-35" points="42.95 208.22 45.78 210.51 45.78 218.89 39.41 223.04 39.41 231.1 45.78 234.52 45.78 243.54 44.43 245.13"/><line class="cls-35" x1="32.41" y1="212.45" x2="36.97" y2="215.1"/><line class="cls-35" x1="23.82" y1="227.26" x2="29.06" y2="227.26"/><line class="cls-35" x1="32.31" y1="239.87" x2="36.5" y2="238.21"/><line class="cls-35" x1="54.32" y1="227.26" x2="48.96" y2="227.26"/><rect class="cls-36" x="41.33" y="207.23" width="2.36" height="2.36" transform="translate(85.02 416.82) rotate(-180)"/><rect class="cls-36" x="35.85" y="213.92" width="2.36" height="2.36" transform="translate(74.06 430.2) rotate(-180)"/><rect class="cls-36" x="28" y="226.08" width="2.36" height="2.36" transform="translate(58.36 454.53) rotate(-180)"/><rect class="cls-36" x="35.45" y="236.89" width="2.36" height="2.36" transform="translate(73.26 476.15) rotate(-180)"/><rect class="cls-36" x="42.51" y="244.74" width="2.36" height="2.36" transform="translate(87.38 491.85) rotate(-180)"/><rect class="cls-36" x="47.9" y="226.08" width="2.36" height="2.36" transform="translate(98.15 454.53) rotate(-180)"/><rect class="cls-36" x="58.56" y="226.08" width="2.36" height="2.36"/><rect class="cls-36" x="65.13" y="207.23" width="2.36" height="2.36"/><rect class="cls-36" x="70.6" y="213.92" width="2.36" height="2.36"/><rect class="cls-36" x="78.45" y="226.08" width="2.36" height="2.36"/><rect class="cls-36" x="71" y="236.89" width="2.36" height="2.36"/><rect class="cls-36" x="63.95" y="244.74" width="2.36" height="2.36"/></g><g id="Graph"><circle class="cls-37" cx="207.59" cy="65.51" r="65.51"/><circle class="cls-28" cx="207.59" cy="65.51" r="58.22"/><line class="cls-38" x1="180.61" y1="35.09" x2="180.61" y2="105.87"/><line class="cls-38" x1="171.73" y1="88.4" x2="242.99" y2="88.4"/><line class="cls-39" x1="194.5" y1="84.88" x2="194.5" y2="61.91"/><line class="cls-39" x1="211.92" y1="83.77" x2="211.92" y2="40.26"/><circle class="cls-40" cx="194.5" cy="57.27" r="3.96"/><line class="cls-39" x1="230.4" y1="84.88" x2="230.4" y2="61.91"/><circle class="cls-40" cx="230.4" cy="57.27" r="3.96"/><circle class="cls-40" cx="211.92" cy="35.77" r="3.96"/></g><g id="Analytics"><circle class="cls-33" cx="369.97" cy="262.02" r="53.91"/><circle class="cls-28" cx="369.97" cy="262.02" r="41.97"/><circle class="cls-41" cx="340.43" cy="279.1" r="2.91"/><circle class="cls-41" cx="353.46" cy="254.89" r="2.91"/><circle class="cls-41" cx="395.47" cy="240.36" r="2.91"/><circle class="cls-42" cx="375.3" cy="271.02" r="10.94"/><line class="cls-42" x1="341.83" y1="276.55" x2="351.6" y2="257.8"/><line class="cls-42" x1="356.36" y1="256.52" x2="365.73" y2="264.91"/><line class="cls-42" x1="381.9" y1="262.3" x2="394.17" y2="243.27"/><path class="cls-28" d="M379,266.08a.32.32,0,0,1,.21.34c0,.29,0,.57,0,.86a.21.21,0,0,1-.2.22l-.16,0h-1.91l0,.08a2.81,2.81,0,0,1,.47,1.06c0,.09.06.11.15.11h1.3c.25,0,.34.09.34.34v.76c0,.24-.09.34-.34.34h-1.28c-.09,0-.12,0-.13.11a3.23,3.23,0,0,1-.87,1.71,3.79,3.79,0,0,1-1.29.84,4.87,4.87,0,0,1-1.18.3l-.14,0,0,.07,1.13,1.26c.39.45.78.9,1.16,1.36l1.56,1.87,0,0a.3.3,0,0,1-.07.52h-1.86a1.8,1.8,0,0,1-.2-.19l-.91-1.08-.8-.93-1.35-1.55-1.17-1.28a.39.39,0,0,1-.11-.27v-1c0-.23.11-.33.34-.33h.9a4.3,4.3,0,0,0,1.55-.24,1.86,1.86,0,0,0,.95-.7,1.46,1.46,0,0,0,.24-.52h-3.75a.21.21,0,0,1-.21-.22c0-.33,0-.65,0-1,0-.13.09-.21.23-.23h3.6a.34.34,0,0,0,0-.08,1.53,1.53,0,0,0-.83-.67,3.47,3.47,0,0,0-1.32-.23h-1.32c-.24,0-.34-.1-.35-.34s0-.69,0-1a.33.33,0,0,1,.21-.34Z"/></g></g></g></svg>