<svg xmlns="http://www.w3.org/2000/svg" width="512" height="512" viewBox="0 0 552.77 552.77"><path d="M17.95 528.854h71.861c9.914 0 17.95-8.037 17.95-17.951V196.8c0-9.915-8.036-17.95-17.95-17.95H17.95C8.035 178.85 0 186.885 0 196.8v314.103c0 9.913 8.035 17.951 17.95 17.951zm0-405.225h71.861c9.914 0 17.95-8.036 17.95-17.95V41.866c0-9.914-8.036-17.95-17.95-17.95H17.95C8.035 23.916 0 31.952 0 41.866v63.813c0 9.914 8.035 17.95 17.95 17.95zm507.782 91.653c-10.098-13.292-24.988-24.223-44.676-32.791-19.688-8.562-41.42-12.846-65.197-12.846-48.268 0-89.168 18.421-122.699 55.27-6.672 7.332-11.523 5.729-11.523-4.186V196.8c0-9.915-8.037-17.95-17.951-17.95h-64.192c-9.915 0-17.95 8.035-17.95 17.95v314.103c0 9.914 8.036 17.951 17.95 17.951h71.861c9.915 0 17.95-8.037 17.95-17.951V401.666c0-45.508 2.748-76.701 8.244-93.574 5.494-16.873 15.66-30.422 30.488-40.649 14.83-10.227 31.574-15.343 50.24-15.343 14.572 0 27.037 3.58 37.393 10.741 10.355 7.16 17.834 17.19 22.436 30.104 4.604 12.912 6.904 41.354 6.904 85.33v132.627c0 9.914 8.035 17.951 17.949 17.951h71.861c9.914 0 17.949-8.037 17.949-17.951V333.02c0-31.445-1.982-55.607-5.941-72.48s-10.992-31.959-21.096-45.258z" fill="#FFF"/></svg>