<svg xmlns="http://www.w3.org/2000/svg" xmlns:xlink="http://www.w3.org/1999/xlink" width="977" height="430"><defs><linearGradient id="a" x1="50.001%" x2="50.001%" y1="100.009%" y2="0%"><stop offset="0%" stop-color="gray" stop-opacity=".25"/><stop offset="54%" stop-color="gray" stop-opacity=".12"/><stop offset="100%" stop-color="gray" stop-opacity=".1"/></linearGradient><linearGradient id="e" x1="-.053%" x2="99.977%" y1="49.997%" y2="49.997%"><stop offset="0%" stop-color="gray" stop-opacity=".25"/><stop offset="54%" stop-color="gray" stop-opacity=".12"/><stop offset="100%" stop-color="gray" stop-opacity=".1"/></linearGradient><filter id="d" width="194.6%" height="166.7%" x="-47.3%" y="-33.3%" filterUnits="objectBoundingBox"><feOffset dx="6" dy="5" in="SourceAlpha" result="shadowOffsetOuter1"/><feGaussianBlur in="shadowOffsetOuter1" result="shadowBlurOuter1" stdDeviation="6"/><feColorMatrix in="shadowBlurOuter1" result="shadowMatrixOuter1" values="0 0 0 0 0 0 0 0 0 0 0 0 0 0 0 0 0 0 0.151919158 0"/><feMerge><feMergeNode in="shadowMatrixOuter1"/><feMergeNode in="SourceGraphic"/></feMerge></filter><path id="b" d="M0 0h242v58H0z"/></defs><g fill="none" fill-rule="evenodd"><path fill="#0F2EBF" fill-rule="nonzero" d="M660.313 29.125c0-1.726-1.4-3.125-3.125-3.125h-34.375a3.125 3.125 0 00-3.125 3.125v10.938H615v6.25h50v-6.25h-4.688V29.124zm-6.25 10.938h-28.125V32.25h28.125v7.813zM625.938 51v7.031h8.593c1.726 0 3.125 1.4 3.125 3.125v8.594h16.407V51h6.25v21.875c0 1.726-1.4 3.125-3.125 3.125h-23.193a3.12 3.12 0 01-2.209-.917l-11.182-11.182a3.125 3.125 0 01-.917-2.208V51h6.25z" opacity=".307"/><path fill="#0F2EBF" fill-rule="nonzero" d="M398.469 53.688A3.688 3.688 0 00394.78 50h-40.56a3.687 3.687 0 00-3.688 3.688v12.906H345v7.375h59v-7.375h-5.531V53.688zm-7.375 12.906h-33.188v-9.219h33.188v9.219zM357.906 79.5v8.297h10.14a3.688 3.688 0 013.688 3.687v10.141h19.36V79.5h7.375v25.813A3.688 3.688 0 01394.78 109h-27.367c-.978 0-1.915-.39-2.606-1.082l-13.195-13.195a3.688 3.688 0 01-1.082-2.606V79.5h7.375zm101.5 79.563a3.063 3.063 0 00-3.062-3.063h-33.688a3.062 3.062 0 00-3.062 3.063v10.718H415v6.125h49v-6.125h-4.594v-10.719zm-6.125 10.718H425.72v-7.656h27.562v7.656zM425.72 180.5v6.89h8.422a3.063 3.063 0 013.062 3.063v8.422h16.078V180.5h6.125v21.438a3.063 3.063 0 01-3.062 3.062h-22.73c-.811 0-1.59-.324-2.163-.898l-10.959-10.959a3.062 3.062 0 01-.898-2.164V180.5h6.125zm24.624 97.938a2.437 2.437 0 00-2.438-2.438h-26.812a2.437 2.437 0 00-2.438 2.438v8.53H415v4.876h39v-4.875h-3.656v-8.531zm-4.875 8.53H423.53v-6.093h21.938v6.094zM423.53 295.5v5.484h6.703a2.437 2.437 0 012.438 2.438v6.703h12.797V295.5h4.875v17.063a2.437 2.437 0 01-2.438 2.437h-18.09a2.437 2.437 0 01-1.723-.715l-8.722-8.722a2.437 2.437 0 01-.715-1.723v-8.34h4.875z"/><path fill="#0F2EBF" fill-rule="nonzero" d="M535.344 316.438a2.437 2.437 0 00-2.438-2.438h-26.812a2.437 2.437 0 00-2.438 2.438v8.53H500v4.876h39v-4.875h-3.656v-8.531zm-4.875 8.53H508.53v-6.093h21.938v6.094zM508.53 333.5v5.484h6.703a2.437 2.437 0 012.438 2.438v6.703h12.797V333.5h4.875v17.063a2.437 2.437 0 01-2.438 2.437h-18.09a2.437 2.437 0 01-1.723-.715l-8.722-8.722a2.437 2.437 0 01-.715-1.723v-8.34h4.875z" opacity=".62"/><path fill="#0F2EBF" fill-rule="nonzero" d="M845.344 356.438a2.437 2.437 0 00-2.438-2.438h-26.812a2.437 2.437 0 00-2.438 2.438v8.53H810v4.876h39v-4.875h-3.656v-8.531zm-4.875 8.53H818.53v-6.093h21.938v6.094zM818.53 373.5v5.484h6.703a2.437 2.437 0 012.438 2.438v6.703h12.797V373.5h4.875v17.063a2.437 2.437 0 01-2.438 2.437h-18.09a2.437 2.437 0 01-1.723-.715l-8.722-8.722a2.437 2.437 0 01-.715-1.723v-8.34h4.875z" opacity=".102"/><path fill="#0F2EBF" fill-rule="nonzero" d="M983.344 330.438a2.437 2.437 0 00-2.438-2.438h-26.812a2.437 2.437 0 00-2.438 2.438v8.53H948v4.876h39v-4.875h-3.656v-8.531zm-4.875 8.53H956.53v-6.093h21.938v6.094zM956.53 347.5v5.484h6.703a2.437 2.437 0 012.438 2.438v6.703h12.797V347.5h4.875v17.063a2.437 2.437 0 01-2.438 2.437h-18.09a2.437 2.437 0 01-1.723-.715l-8.722-8.722a2.437 2.437 0 01-.715-1.723v-8.34h4.875z" opacity=".045"/><path fill="#0F2EBF" fill-rule="nonzero" d="M561.281 217.813A1.813 1.813 0 00559.47 216h-19.94a1.812 1.812 0 00-1.812 1.813v6.343H535v3.625h29v-3.625h-2.719v-6.344zm-3.625 6.343h-16.312v-4.531h16.312v4.531zm-16.312 6.344v4.078h4.984c1.001 0 1.813.812 1.813 1.813v4.984h9.515V230.5h3.625v12.688A1.813 1.813 0 01559.47 245h-13.452a1.81 1.81 0 01-1.28-.532l-6.487-6.485c-.34-.34-.53-.8-.531-1.281V230.5h3.625z" opacity=".307"/><path fill="#0F2EBF" fill-rule="nonzero" d="M520.344 78.438A2.437 2.437 0 00517.906 76h-26.812a2.437 2.437 0 00-2.438 2.438v8.53H485v4.876h39v-4.875h-3.656v-8.531zm-4.875 8.53H493.53v-6.093h21.938v6.094zM493.53 95.5v5.484h6.703a2.437 2.437 0 012.438 2.438v6.703h12.797V95.5h4.875v17.063a2.437 2.437 0 01-2.438 2.437h-18.09a2.437 2.437 0 01-1.723-.715l-8.722-8.722a2.437 2.437 0 01-.715-1.723V95.5h4.875z" opacity=".62"/><path fill="#0F2EBF" fill-rule="nonzero" d="M999.313 29.125c0-1.726-1.4-3.125-3.125-3.125h-34.375a3.125 3.125 0 00-3.125 3.125v10.938H954v6.25h50v-6.25h-4.688V29.124zm-6.25 10.938h-28.125V32.25h28.125v7.813zM964.938 51v7.031h8.593c1.726 0 3.125 1.4 3.125 3.125v8.594h16.407V51h6.25v21.875c0 1.726-1.4 3.125-3.125 3.125h-23.193a3.12 3.12 0 01-2.209-.917l-11.182-11.182a3.125 3.125 0 01-.917-2.208V51h6.25z" opacity=".045"/><path fill="#0F2EBF" fill-rule="nonzero" d="M810.313 239.125c0-1.726-1.4-3.125-3.125-3.125h-34.375a3.125 3.125 0 00-3.125 3.125v10.938H765v6.25h50v-6.25h-4.688v-10.938zm-6.25 10.938h-28.125v-7.813h28.125v7.813zM775.938 261v7.031h8.593c1.726 0 3.125 1.4 3.125 3.125v8.594h16.407V261h6.25v21.875c0 1.726-1.4 3.125-3.125 3.125h-23.193a3.12 3.12 0 01-2.209-.917l-11.182-11.182a3.125 3.125 0 01-.917-2.208V261h6.25z" opacity=".102"/><path fill="#0F2EBF" fill-rule="nonzero" d="M979.375 219.125c0-1.726-1.679-3.125-3.75-3.125h-41.25c-2.071 0-3.75 1.4-3.75 3.125v10.938H925v6.25h60v-6.25h-5.625v-10.938zm-7.5 10.938h-33.75v-7.813h33.75v7.813zM938.125 241v7.031h10.313c2.07 0 3.75 1.4 3.75 3.125v8.594h19.687V241h7.5v21.875c0 1.726-1.679 3.125-3.75 3.125h-27.831c-.994 0-1.948-.33-2.65-.917l-13.419-11.182c-.703-.585-1.1-1.38-1.1-2.208V241h7.5z" opacity=".045"/><path fill="#0F2EBF" fill-rule="nonzero" d="M629.344 128.438a2.437 2.437 0 00-2.438-2.438h-26.812a2.437 2.437 0 00-2.438 2.438v8.53H594v4.876h39v-4.875h-3.656v-8.531zm-4.875 8.53H602.53v-6.093h21.938v6.094zM602.53 145.5v5.484h6.703a2.437 2.437 0 012.438 2.438v6.703h12.797V145.5h4.875v17.063a2.437 2.437 0 01-2.438 2.437h-18.09a2.437 2.437 0 01-1.723-.715l-8.722-8.722a2.437 2.437 0 01-.715-1.723v-8.34h4.875z" opacity=".307"/><path fill="#0F2EBF" fill-rule="nonzero" d="M899.344 58.438A2.437 2.437 0 00896.906 56h-26.812a2.437 2.437 0 00-2.438 2.438v8.53H864v4.876h39v-4.875h-3.656v-8.531zm-4.875 8.53H872.53v-6.093h21.938v6.094zM872.53 75.5v5.484h6.703a2.437 2.437 0 012.438 2.438v6.703h12.797V75.5h4.875v17.063A2.437 2.437 0 01896.906 95h-18.09a2.437 2.437 0 01-1.723-.715l-8.722-8.722a2.437 2.437 0 01-.715-1.723V75.5h4.875z" opacity=".102"/><path fill="#0F2EBF" fill-rule="nonzero" d="M680.344 228.438a2.437 2.437 0 00-2.438-2.438h-26.812a2.437 2.437 0 00-2.438 2.438v8.53H645v4.876h39v-4.875h-3.656v-8.531zm-4.875 8.53H653.53v-6.093h21.938v6.094zM653.53 245.5v5.484h6.703a2.437 2.437 0 012.438 2.438v6.703h12.797V245.5h4.875v17.063a2.437 2.437 0 01-2.438 2.437h-18.09a2.437 2.437 0 01-1.723-.715l-8.722-8.722a2.437 2.437 0 01-.715-1.723v-8.34h4.875z" opacity=".307"/><path fill="#0F2EBF" fill-rule="nonzero" d="M870.344 153.438a2.437 2.437 0 00-2.438-2.438h-26.812a2.437 2.437 0 00-2.438 2.438v8.53H835v4.876h39v-4.875h-3.656v-8.531zm-4.875 8.53H843.53v-6.093h21.938v6.094zM843.53 170.5v5.484h6.703a2.437 2.437 0 012.438 2.438v6.703h12.797V170.5h4.875v17.063a2.437 2.437 0 01-2.438 2.437h-18.09a2.437 2.437 0 01-1.723-.715l-8.722-8.722a2.437 2.437 0 01-.715-1.723v-8.34h4.875zm-85.186-42.062a2.437 2.437 0 00-2.438-2.438h-26.812a2.437 2.437 0 00-2.438 2.438v8.53H723v4.876h39v-4.875h-3.656v-8.531zm-4.875 8.53H731.53v-6.093h21.938v6.094zM731.53 145.5v5.484h6.703a2.437 2.437 0 012.438 2.438v6.703h12.797V145.5h4.875v17.063a2.437 2.437 0 01-2.438 2.437h-18.09a2.437 2.437 0 01-1.723-.715l-8.722-8.722a2.437 2.437 0 01-.715-1.723v-8.34h4.875z" opacity=".102"/><path fill="#0F2EBF" fill-rule="nonzero" d="M631.281 327.813A1.813 1.813 0 00629.47 326h-19.94a1.812 1.812 0 00-1.812 1.813v6.343H605v3.625h29v-3.625h-2.719v-6.344zm-3.625 6.343h-16.312v-4.531h16.312v4.531zm-16.312 6.344v4.078h4.984c1.001 0 1.813.812 1.813 1.813v4.984h9.515V340.5h3.625v12.688A1.813 1.813 0 01629.47 355h-13.452a1.81 1.81 0 01-1.28-.532l-6.487-6.485c-.34-.34-.53-.8-.531-1.281V340.5h3.625z" opacity=".31"/><path fill="#0F2EBF" fill-rule="nonzero" d="M741.281 337.813A1.813 1.813 0 00739.47 336h-19.94a1.812 1.812 0 00-1.812 1.813v6.343H715v3.625h29v-3.625h-2.719v-6.344zm-3.625 6.343h-16.312v-4.531h16.312v4.531zm-16.312 6.344v4.078h4.984c1.001 0 1.813.812 1.813 1.813v4.984h9.515V350.5h3.625v12.688A1.813 1.813 0 01739.47 365h-13.452a1.81 1.81 0 01-1.28-.532l-6.487-6.485c-.34-.34-.53-.8-.531-1.281V350.5h3.625z" opacity=".307"/><path fill="#0F2EBF" fill-rule="nonzero" d="M891.281 297.813A1.813 1.813 0 00889.47 296h-19.94a1.812 1.812 0 00-1.812 1.813v6.343H865v3.625h29v-3.625h-2.719v-6.344zm-3.625 6.343h-16.312v-4.531h16.312v4.531zm-16.312 6.344v4.078h4.984c1.001 0 1.813.812 1.813 1.813v4.984h9.515V310.5h3.625v12.688A1.813 1.813 0 01889.47 325h-13.452a1.81 1.81 0 01-1.28-.532l-6.487-6.485c-.34-.34-.53-.8-.531-1.281V310.5h3.625zM781.281 47.813A1.813 1.813 0 00779.47 46h-19.94a1.812 1.812 0 00-1.812 1.813v6.343H755v3.625h29v-3.625h-2.719v-6.343zm-3.625 6.343h-16.312v-4.531h16.312v4.531zM761.344 60.5v4.078h4.984c1.001 0 1.813.812 1.813 1.813v4.984h9.515V60.5h3.625v12.688A1.813 1.813 0 01779.47 75h-13.452a1.81 1.81 0 01-1.28-.532l-6.487-6.485c-.34-.34-.53-.8-.531-1.281V60.5h3.625z" opacity=".102"/><g opacity=".2" transform="translate(270 222)"><path fill="#3F3D56" d="M13.448 169.78a13.04 13.04 0 01-1.177 1.827A437.398 437.398 0 00.346 163.45l.262-.523a11.507 11.507 0 014.055-4.452c2.231-1.383 4.747-1.686 6.816-.562 2.07 1.124 3.224 3.373 3.347 5.998a11.652 11.652 0 01-1.378 5.868z"/><ellipse cx="12.474" cy="156.063" fill="#3F3D56" rx="9.568" ry="7.275" transform="rotate(-62.09 12.474 156.063)"/><ellipse cx="17.916" cy="145.713" fill="#3F3D56" rx="9.568" ry="7.275" transform="rotate(-62.09 17.916 145.713)"/><ellipse cx="23.357" cy="135.363" fill="#3F3D56" rx="9.568" ry="7.275" transform="rotate(-62.09 23.357 135.363)"/><ellipse cx="28.793" cy="125.018" fill="#3F3D56" rx="9.568" ry="7.275" transform="rotate(-62.09 28.793 125.018)"/><path fill="#577ACB" d="M41.974 41.342a34.937 34.937 0 01-.558-4.823l18.362 6.228-18.312-9.6c.537-9.642 4.992-18.635 12.316-24.862l17.743 25.856L57.748 5.385a34.562 34.562 0 0136.203-.436c11.198 6.693 17.75 19.126 16.982 32.223-.768 13.097-8.73 24.665-20.633 29.981.454 2.481.641 5.005.558 7.526l-27.89-.224 27.489 4.564c-1.888 11.685-9.501 21.621-20.243 26.418 3.237 17.991-7.79 35.468-25.331 40.146-17.541 4.677-35.704-5.016-41.72-22.266-6.017-17.25 2.132-36.263 18.72-43.674-2.862-15.921 5.458-31.748 20.135-38.307l-.044.006z"/><path fill="#577ACB" d="M86.814 89.8a34.769 34.769 0 01-16.644 15.643c3.237 17.99-7.791 35.468-25.332 40.145-17.54 4.678-35.703-5.016-41.72-22.265-6.017-17.25 2.132-36.263 18.72-43.675-1.35-7.47 66.806 6.672 64.976 10.152z"/></g><g opacity=".2"><path fill="#3F3D56" d="M121.408 347.92a24.284 24.284 0 001.338 3.951 824.174 824.174 0 0126.155-9.529c-.078-.358-.156-.728-.246-1.12a22.17 22.17 0 00-5.5-10.213c-3.519-3.632-8.084-5.403-12.476-4.327-4.392 1.076-7.626 4.747-9.086 9.579a22.207 22.207 0 00-.185 11.658z"/><ellipse cx="129.729" cy="322.713" fill="#3F3D56" rx="14.028" ry="18.388" transform="rotate(-13.72 129.729 322.713)"/><ellipse cx="124.402" cy="300.874" fill="#3F3D56" rx="14.028" ry="18.388" transform="rotate(-13.72 124.402 300.874)"/><ellipse cx="119.082" cy="279.035" fill="#3F3D56" rx="14.028" ry="18.388" transform="rotate(-13.72 119.082 279.035)"/><ellipse cx="113.762" cy="257.202" fill="#3F3D56" rx="14.028" ry="18.388" transform="rotate(-13.72 113.762 257.202)"/><path fill="#577ACB" d="M128.335 95.315a66.581 66.581 0 003.25-8.722l-37.233 2.864 38.806-9.198a67.538 67.538 0 00-11.375-52.127L76.398 67.85l39.31-46.988C98.311 2.698 72.252-4.223 48.16 2.923 24.068 10.069 5.97 30.087 1.25 54.812c-4.721 24.724 4.726 50.02 24.485 65.569a66.971 66.971 0 00-4.537 13.743L73.56 146.95l-53.599-4.552c-1.979 22.671 7.606 44.81 25.48 58.854-14.515 31.949-2.081 69.707 28.56 86.733 30.64 17.025 69.196 7.599 88.564-21.653 19.367-29.252 13.041-68.504-14.532-90.163 12.847-28.276 4.706-61.687-19.7-80.853z"/><path fill="#577ACB" d="M21.63 164.224a66.998 66.998 0 0023.811 36.993c-14.514 31.949-2.08 69.708 28.56 86.733 30.64 17.026 69.197 7.599 88.565-21.653 19.367-29.252 13.041-68.504-14.532-90.162 6.037-13.25-128.195-19.248-126.404-11.911z"/></g><g opacity=".9" transform="translate(105 2)"><rect width="6.025" height="49.802" x="200.947" y="93.224" fill="#E5E7EB" rx="2.29"/><rect width="3.385" height="16.395" x=".587" y="54.209" fill="#E5E7EB" rx="1.692"/><rect width="3.816" height="28.535" x=".464" y="84.224" fill="#E5E7EB" rx="1.908"/><rect width="3.631" height="28.781" x=".526" y="122.745" fill="#E5E7EB" rx="1.815"/><rect width="201.696" height="410.837" x="2.501" y=".028" fill="#0D2FCF" rx="38.99"/><rect width="28.169" height="5.73" x="83.897" y="12.296" fill="#E5E7EB" rx="2.865"/><ellipse cx="119.562" cy="15.162" fill="#E5E7EB" rx="3.245" ry="3.252"/></g><path fill="#191C27" d="M280.963 13h-23.117v2.8c-.003 7.292-5.916 13.202-13.208 13.202h-73.704c-7.293 0-13.205-5.91-13.208-13.202V13h-21.69C127.18 13 120 20.18 120 29.035v356.93c0 8.856 7.18 16.035 16.037 16.035h144.926c8.857 0 16.037-7.18 16.037-16.035V29.035C297 20.18 289.82 13 280.963 13z"/><ellipse cx="49" cy="421.5" fill="#FFF" opacity=".306" rx="32" ry="5.5"/><path fill="#FFF" d="M61.828 412.97c1.38-1.294 2.677-2.836 3.072-4.668.394-1.832-.384-4.078-2.148-4.753-1.972-.76-4.08.612-5.674 2.002-1.595 1.39-3.432 2.978-5.523 2.683a8.483 8.483 0 002.598-7.94 3.282 3.282 0 00-.721-1.606c-1.094-1.18-3.077-.675-4.39.256-4.165 2.949-5.331 8.649-5.354 13.781-.422-1.854-.067-3.782-.079-5.671-.01-1.889-.524-4.004-2.113-5.025a6.385 6.385 0 00-3.234-.76c-1.871-.068-3.945.119-5.236 1.497-1.594 1.702-1.177 4.589.203 6.477 1.38 1.889 3.488 3.068 5.427 4.373 1.47.992 2.964 2.15 3.871 3.72.12.21.216.433.288.664h11.738a32.91 32.91 0 007.275-5.03z" opacity=".306"/><g fill="#FFF" opacity=".4" transform="translate(329 378)"><ellipse cx="18.511" cy="13.798" rx="18.298" ry="3.128"/><path d="M26.074 8.681a5.41 5.41 0 001.749-2.657c.224-1.06-.224-2.33-1.222-2.715-1.121-.43-2.316.352-3.224 1.134-.908.782-1.945 1.7-3.134 1.53a4.842 4.842 0 001.475-4.534 1.857 1.857 0 00-.41-.912c-.622-.674-1.748-.385-2.488.142-2.366 1.7-3.028 4.935-3.045 7.86-.235-1.055-.033-2.154-.039-3.236-.005-1.083-.303-2.267-1.205-2.868a3.623 3.623 0 00-1.833-.43c-1.065-.04-2.243.068-2.977.85-.903.98-.667 2.618.118 3.694.784 1.077 1.979 1.751 3.083 2.494a6.922 6.922 0 012.198 2.119c.067.12.122.248.162.38h6.671a18.493 18.493 0 004.12-2.85z"/></g><g fill="#FFF" opacity=".4" transform="translate(49 343)"><ellipse cx="18.556" cy="13.781" rx="18.298" ry="3.128"/><path d="M26.124 8.664a5.348 5.348 0 001.744-2.663c.224-1.054-.219-2.323-1.222-2.709-1.122-.43-2.316.352-3.218 1.134-.903.782-1.951 1.7-3.134 1.53a4.871 4.871 0 001.474-4.534 1.925 1.925 0 00-.409-.918c-.622-.668-1.749-.38-2.495.148-2.365 1.7-3.027 4.93-3.038 7.854-.241-1.054-.04-2.154-.045-3.236-.006-1.082-.297-2.267-1.2-2.833A3.59 3.59 0 0012.743 2c-1.06-.04-2.243.068-2.972.856-.902.98-.667 2.618.118 3.695.785 1.076 1.979 1.745 3.078 2.493a6.81 6.81 0 012.197 2.12c.068.12.124.248.169.379h6.665a18.658 18.658 0 004.126-2.879z"/></g><path fill="#D6D8E0" d="M134 42h29v29h-29zm50 2h60v5h-60zm0 10h99v5h-99zm0 10h99v5h-99zm-50 30h29v29h-29zm50 3h60v5h-60zm0 9h99v5h-99zm0 10h99v5h-99zm-50 31h29v29h-29zm50 2h60v5h-60zm0 10h99v5h-99zm0 10h99v5h-99zm-50 30h29v29h-29zm50 3h60v5h-60zm0 9h99v5h-99zm0 10h99v5h-99zm-49 31h29v29h-29zm50 2h60v5h-60zm-1 10h99v5h-99zm0 10h99v5h-99zm-49 30h29v29h-29zm50 3h60v5h-60zm0 9h99v5h-99zm0 10h99v5h-99zm-50 31h29v29h-29zm50 2h60v5h-60zm0 10h99v5h-99zm0 10h99v5h-99z"/><path fill="url(#a)" d="M87 128h244v61H87z"/><g transform="translate(88 130)"><mask id="c" fill="#fff"><use xlink:href="#b"/></mask><use fill="#FFF" xlink:href="#b"/><g mask="url(#c)"><path fill="#0F2EBF" d="M228 44.76v69.476c0 3.736-2.949 6.764-6.582 6.764h-60.836c-3.636 0-6.582-3.028-6.582-6.764V22.764c0-3.736 2.946-6.764 6.582-6.764h39.433L228 44.76z"/><path fill="#78B9EB" d="M172 67h38v4h-38zm0-8h38v4h-38zm0 20h38v4h-38z"/><path fill="#0522AB" d="M204 43.593L228 54v-9.771L214.393 40z"/><path fill="#ACD1FC" d="M228 45h-21.414c-3.638 0-6.586-3.053-6.586-6.82V16l28 29z"/><path fill="#78B9EB" fill-rule="nonzero" d="M180.5 28c-5.247 0-9.5 4.477-9.5 10s4.253 10 9.5 10 9.5-4.477 9.5-10-4.253-10-9.5-10zm0 3.793c1.447 0 2.62 1.235 2.62 2.759 0 1.523-1.173 2.758-2.62 2.758s-2.62-1.235-2.62-2.758c0-1.524 1.173-2.759 2.62-2.759zm5.569 12.07h-11.138v-1.035c0-2.286 1.76-4.138 3.931-4.138h3.276c2.171 0 3.931 1.852 3.931 4.138v1.034z"/></g><g filter="url(#d)" mask="url(#c)"><path fill="#0F2EBF" d="M190 34.76v69.476c0 3.736-2.949 6.764-6.582 6.764h-60.836c-3.636 0-6.582-3.028-6.582-6.764V12.764C116 9.028 118.946 6 122.582 6h39.433L190 34.76z"/><path fill="#78B9EB" d="M134 57h38v4h-38zm0-8h38v4h-38zm0 20h38v4h-38z"/><path fill="#0522AB" d="M166 33.593L190 44v-9.771L176.393 30z"/><path fill="#ACD1FC" d="M190 35h-21.414c-3.638 0-6.586-3.053-6.586-6.82V6l28 29z"/><path fill="#78B9EB" fill-rule="nonzero" d="M142.5 18c-5.247 0-9.5 4.477-9.5 10s4.253 10 9.5 10 9.5-4.477 9.5-10-4.253-10-9.5-10zm0 3.793c1.447 0 2.62 1.235 2.62 2.759 0 1.523-1.173 2.758-2.62 2.758s-2.62-1.235-2.62-2.758c0-1.524 1.173-2.759 2.62-2.759zm5.569 12.07h-11.138v-1.035c0-2.286 1.76-4.138 3.931-4.138h3.276c2.171 0 3.931 1.852 3.931 4.138v1.034z"/></g></g><path fill="#FFF" d="M135 144h29v29h-29z"/><path fill="url(#e)" fill-rule="nonzero" d="M174.096 181.858c-1.53-1.508-4.071-2.007-5.91-.897-1.428.858-2.215 2.456-2.935 3.964-1.051 2.243-2.592 4.34-3.064 6.763-1.3 6.679-6.63 11.866-8.767 18.32-.764 2.305-1.124 4.778-2.333 6.88a21.9 21.9 0 01-1.912 2.625 73.89 73.89 0 00-7.31 11.12c-1.214.236-2.294 1.262-3.328 2.064a11.501 11.501 0 01-4.499 2.125 4.26 4.26 0 00-1.844.673c-.776.645-.883 1.806-1.513 2.585a4.038 4.038 0 01-1.686 1.122c0-.197-.029-.393-.034-.595a115.38 115.38 0 01-.045-3.123 11.718 11.718 0 00-.034-15.242c.044-1.624.261-3.238.647-4.817.197-.768.168-1.71-.456-2.21-.309-.24-.708-.33-1.04-.56a4.522 4.522 0 01-1.125-1.424 6.083 6.083 0 00-7.635-1.946c-2.03 1.065-3.262 3.196-5.061 4.643-.922.74-1.985 1.295-2.907 2.041a12.035 12.035 0 00-3.762 6.101 34.858 34.858 0 00-1.023 7.2 6.482 6.482 0 00.084 2.188 5.77 5.77 0 00.827 1.682 18.882 18.882 0 006.989 6.645c.011.144.011.288 0 .432 0 .224-.073.443-.124.667l-.326-.09c-1.203-.269-2.502-.235-3.582-.835-1.844-1.032-2.4-3.55-4.166-4.705a3.191 3.191 0 00-.473-.252 31.395 31.395 0 00-1.81-9.348c-.517-1.436-1.153-2.9-1.074-4.43.067-1.42.748-2.726 1.355-4.01 2.12-4.43 3.604-9.13 5.06-13.811.934-2.943 1.871-5.887 2.812-8.832a13.946 13.946 0 002.469-2.344 12.484 12.484 0 002.862-6.13 8.663 8.663 0 00-1.58-6.482A3.758 3.758 0 00113.2 178a3.44 3.44 0 00-2.469 1.122 10.94 10.94 0 00-2.114 3.622c-.922 2.17-1.855 4.424-1.765 6.78.073 1.951.804 4.132-.338 5.72-3.74 5.198-6.562 11.175-9.525 16.862a30.124 30.124 0 00-1.923 4.228 23.492 23.492 0 00-1.007 7.29c-.028 4.626.608 9.23 1.237 13.817.287 2.07.653 4.267 1.637 6.056a25.333 25.333 0 00-1.007 6.819 3.877 3.877 0 00.248 1.564c.33.581.75 1.107 1.242 1.56a6.969 6.969 0 011.687 5.517 15.61 15.61 0 00.5 5.53c1.125 4.979 2.25 9.953 3.15 14.972.213.933.285 1.894.213 2.848-.174 1.358-.928 2.647-.765 4.01.161.63.282 1.271.36 1.918-.036.493-.15.977-.337 1.435-1.282 3.718-4.729 12.242-4.69 16.178l.9-.213c-.905 5.109-3.025 9.993-4.138 15.085a50.336 50.336 0 00-1.046 11.282 41.742 41.742 0 01-.09 5.103c-.175 1.509-.563 2.983-.776 4.486a40.535 40.535 0 00-.27 6.073c-.059 3.188.13 6.375.562 9.533.86 5.384-.646 10.733-1.057 16.167a96.916 96.916 0 01-1.293 11.339c-.31 1.581-.697 3.151-.911 4.75-.63 4.743.287 9.633-.703 14.316-.467 2.192-1.299 4.654-.073 6.527.388.589.945 1.049 1.366 1.615.47.545.62 1.296.394 1.98-.242.515-.804.852-.945 1.401-.225.864.68 1.57 1.49 1.94l.23.09a2.076 2.076 0 00.44 1.683 3.58 3.58 0 001.726.897l10.616 3.207c2.367.718 4.942 1.425 7.31.842.053.335.199.65.421.908a3.58 3.58 0 001.726.897l10.538 3.185c2.71.819 5.685 1.627 8.288.516a4.705 4.705 0 001.9-1.43 4.99 4.99 0 00.675-4.189 3.412 3.412 0 00-1.023-1.873 4.507 4.507 0 00-2.452-.801 4.964 4.964 0 01-2.148-.561c-.2-.13-.368-.305-.489-.51a37.8 37.8 0 001.766-1.862c-.461-.157-.624-.819-.67-1.301-.669-7.144 2.03-14.126 3.054-21.225a45.3 45.3 0 00.27-10.756c-.124-1.351-.31-2.697-.366-4.054-.264-7.065 3.121-13.862 3.003-20.933-.056-3.309 1.687-6.572 2.536-9.774.742-2.838.765-5.81.781-8.748l.135-23.137c0-3.13 0-6.331-1-9.286a11.745 11.745 0 01-.405-5.08c2.862-1.263 5.572-3.13 8.63-2.805.816-2.159-.151-9.353-.916-11.535a49.477 49.477 0 01-1.687-26.714c.692-3.191-.258-6.584.512-9.763a5.896 5.896 0 01.838-2.097 2.25 2.25 0 011.929-1.015c0-1.946-.04-3.926-.17-5.9a14.03 14.03 0 003.133-3.594c1.687-2.804 2.648-5.961 3.812-9.012 2.064-5.383 4.88-10.435 7.248-15.701 2.367-5.266 2.598-11.025 4.498-16.475a12.392 12.392 0 016.045-6.942c1.125-.561 2.322-.965 3.138-1.885a5.04 5.04 0 001.09-2.674 7.058 7.058 0 00-1.81-5.967zm-65.788 231.668c.23-.252.455-.505.669-.78-.708-.112-1.574-.628-1.591-1.345.05-.72.206-1.428.46-2.103a8.39 8.39 0 00.158-3.735c-.157-.87-.45-1.682-.63-2.568a23.99 23.99 0 01-.337-2.905 47.937 47.937 0 00-2.047-10.296c-1.017-3.246.377-6.532.737-9.914.174-1.604.096-3.258.658-4.766.332-.898.877-1.683 1.209-2.591.77-2.08.315-4.396-.158-6.567 3.33-6.017 4.431-13.194 5.685-19.968l2.114-11.4c.31-1.683.653-3.455 1.687-4.812a58.96 58.96 0 011.282 15.331 22.7 22.7 0 00.056 4.486c.26 1.632.94 3.174 1.333 4.778.877 3.539.366 7.256.562 10.896.073 1.469.265 2.938.326 4.407.276 6.5-1.906 12.82-4.06 18.96-1.32 3.762-1.613 8.041-2.248 11.983-.596 3.774-1.187 7.554-1.49 11.361-.09 1.161-.164 2.355-.304 3.533a9.279 9.279 0 00-1.097-.174 4.964 4.964 0 01-2.148-.56 2.495 2.495 0 01-.826-1.251z"/><path fill="#3F3D56" d="M131.31 421.022a4.547 4.547 0 012.466.814 3.49 3.49 0 011.03 1.902 5.12 5.12 0 01-.679 4.257 4.7 4.7 0 01-1.912 1.443c-2.618 1.146-5.61.316-8.336-.515l-10.679-3.26a3.57 3.57 0 01-1.736-.911 2.409 2.409 0 01-.045-2.779 5.369 5.369 0 012.262-1.827c3.326-1.64 7.07-2.017 10.746-2.086 1.358-.029 2.693-.327 3.614.733.487.573.402 1.18 1.132 1.668.66.35 1.392.541 2.137.561z"/><path fill="#3F3D56" d="M111.31 415.017c.882.02 1.74.301 2.466.809.531.51.891 1.175 1.03 1.903a5.12 5.12 0 01-.68 4.26 4.712 4.712 0 01-1.911 1.45c-2.619 1.147-5.61.31-8.337-.521L93.2 419.656a3.524 3.524 0 01-1.736-.912 2.412 2.412 0 01-.045-2.78 5.335 5.335 0 012.262-1.83c3.326-1.64 7.064-2.018 10.718-2.086 1.351 0 2.692-.327 3.614.733.486.574.401 1.187 1.13 1.669a4.93 4.93 0 002.167.567z"/><path fill="#3F3D56" d="M120.394 300a129.38 129.38 0 00-18.723-.528 3.658 3.658 0 00-1.213.192c-1.376.562-1.589 2.371-1.723 3.855-.525 5.996-3.16 11.588-4.474 17.472a50.127 50.127 0 00-1.04 11.24 41.504 41.504 0 01-.09 5.058c-.173 1.506-.559 2.973-.771 4.496a40.408 40.408 0 00-.268 6.047c-.058 3.17.129 6.34.559 9.481.855 5.361-.643 10.678-1.052 16.096a96.743 96.743 0 01-1.286 11.29c-.307 1.574-.693 3.136-.906 4.726-.626 4.727.285 9.6-.699 14.258-.464 2.18-1.292 4.631-.073 6.497.386.59.94 1.045 1.36 1.607.466.543.614 1.292.39 1.973-.24.511-.799.848-.939 1.394-.223.86.677 1.567 1.482 1.933 6.068 2.748 13.892.81 17.985-4.468-.704-.112-1.566-.624-1.582-1.338a7.41 7.41 0 01.458-2.096 8.357 8.357 0 00.157-3.72c-.157-.86-.448-1.686-.627-2.557a23.95 23.95 0 01-.335-2.889 47.763 47.763 0 00-2.036-10.25c-1.012-3.232.375-6.503.733-9.875.173-1.59.095-3.243.654-4.743.33-.894.873-1.686 1.203-2.58.766-2.074.313-4.372-.157-6.536 3.31-5.996 4.407-13.14 5.654-19.883l2.103-11.353c.307-1.686.648-3.433 1.677-4.788a58.779 58.779 0 011.275 15.27 22.59 22.59 0 00.056 4.434c.257 1.624.934 3.158 1.326 4.76.872 3.518.363 7.222.559 10.846.073 1.462.263 2.923.324 4.39.274 6.468-1.896 12.763-4.037 18.871-1.315 3.749-1.605 8.009-2.237 11.932-.593 3.76-1.18 7.519-1.482 11.313-.274 3.484-.392 7.255-2.55 9.992 1.968 1.287 4.01 2.596 6.313 3.04a11.662 11.662 0 007.79-1.512 24.638 24.638 0 006.152-5.26c-.459-.157-.62-.82-.666-1.298-.665-7.11 2.02-14.05 3.037-21.131a45.18 45.18 0 00.269-10.712c-.124-1.343-.308-2.68-.364-4.03-.263-7.035 3.104-13.807 2.986-20.844-.056-3.293 1.678-6.547 2.522-9.733.739-2.81.761-5.783.778-8.706l.134-23.041c0-3.12 0-6.306-.995-9.25-1.23-3.536.173-7.605.385-11.342a46.323 46.323 0 01-17.996 2z"/><path fill="#A0616A" d="M140.385 234.182a72.802 72.802 0 018.654-13.488 22.012 22.012 0 001.922-2.589c1.216-2.075 1.577-4.523 2.346-6.8 2.148-6.38 7.507-11.507 8.813-18.106.474-2.393 2.023-4.462 3.08-6.694.724-1.495 1.515-3.068 2.951-3.904 1.848-1.116 4.403-.597 5.941.892a6.89 6.89 0 011.815 5.885 4.88 4.88 0 01-1.097 2.644c-.82.91-2.046 1.322-3.154 1.869a12.268 12.268 0 00-6.077 6.855c-1.888 5.389-2.125 11.09-4.522 16.283-2.397 5.193-5.212 10.185-7.286 15.501-1.17 3.018-2.115 6.136-3.833 8.925-1.718 2.79-4.42 5.127-7.665 5.545a18.77 18.77 0 00-.95-5.935c-.684-2.215-1.967-4.83-.938-6.883zm-34.915 3.884c.14-3.97-.465-7.93-1.785-11.667-.507-1.432-1.13-2.886-1.052-4.407.066-1.41.732-2.712 1.327-3.987 2.078-4.407 3.532-9.084 4.959-13.745l2.755-8.78a13.886 13.886 0 002.418-2.331 12.536 12.536 0 002.805-6.098 8.727 8.727 0 00-1.548-6.45 3.649 3.649 0 00-2.59-1.601c-.924.016-1.8.423-2.418 1.123a10.907 10.907 0 00-2.072 3.605c-.904 2.156-1.818 4.401-1.73 6.737.072 1.943.788 4.11-.33 5.688-3.664 5.171-6.43 11.117-9.334 16.77a30.153 30.153 0 00-1.884 4.206 23.727 23.727 0 00-.986 7.266c-.028 4.604.595 9.18 1.212 13.744.386 2.853.903 5.963 3.025 7.861 2.209-2.858 4.424-5.676 7.228-7.934z"/><circle cx="119.5" cy="228.5" r="11.5" fill="#A0616A"/><path fill="#A0616A" d="M114.372 240.625c-.284 2.15-1.424 4.066-2.536 5.918-.675 1.144-1.526 2.362-2.836 2.488a56.46 56.46 0 0010.687 4.334c1.26.426 2.58.64 3.908.635a9.485 9.485 0 003.25-.84A16.233 16.233 0 00136 242.294a21.076 21.076 0 01-4.368-.338c-.805-.148-1.673-.388-2.144-1.057a3.505 3.505 0 01-.442-1.916 103.538 103.538 0 010-5.936 23.081 23.081 0 00-8.554 1.058c-1.134.372-2.269.824-3.432 1.115-.714.178-2.683 0-3.21.418-.8.634.732 3.528.522 4.986z"/><path fill="#FFF" d="M119.51 247.708a7.328 7.328 0 00-5.552-6.512c-1.198-.264-2.49-.236-3.565-.832-1.836-1.03-2.39-3.537-4.147-4.69-1.757-1.153-4.264-.512-5.798.95-1.533 1.463-2.311 3.532-2.938 5.556a28.097 28.097 0 00-1.505 8.52 3.886 3.886 0 00.246 1.563 6.52 6.52 0 001.237 1.558 6.928 6.928 0 011.679 5.488 15.615 15.615 0 00.498 5.517c1.119 4.954 2.238 9.914 3.134 14.913.21.921.281 1.869.212 2.812-.173 1.35-.923 2.637-.76 3.987.16.63.28 1.27.357 1.917-.036.49-.15.97-.335 1.423-1.276 3.711-4.707 12.203-4.668 16.122 5.96-1.535 14.747-1.878 20.897-1.9 1.695-.024 3.39.05 5.076.224 4.046.433 8.187 1.62 12.11.523 3.638-1.018 6.867-3.936 10.634-3.565.811-2.154-.151-9.324-.913-11.494a49.34 49.34 0 01-1.678-26.616c.688-3.182-.258-6.556.509-9.722.14-.746.423-1.456.834-2.092a2.236 2.236 0 011.92-1.012 71.97 71.97 0 00-1.4-15.144c-.375-1.772-1.153-3.863-2.927-4.167-1.6-.27-2.95 1.085-4.23 2.086a11.538 11.538 0 01-4.478 2.115 4.201 4.201 0 00-1.835.669c-.773.64-.879 1.8-1.506 2.58-1.12 1.401-3.62 1.277-4.415 2.891a10.16 10.16 0 00-.426 1.48 5.406 5.406 0 01-1.84 2.39 10.373 10.373 0 01-4.428 2.462z"/><path fill="#2D293D" d="M128.893 216.658c.195-.761.167-1.666-.452-2.177-.307-.239-.703-.328-1.032-.555a4.446 4.446 0 01-1.116-1.405 6.075 6.075 0 00-7.592-1.905c-2.014 1.05-3.235 3.149-5.02 4.57-.915.733-1.97 1.277-2.884 2.005a11.842 11.842 0 00-3.732 6.008 34.045 34.045 0 00-1.01 7.091 6.341 6.341 0 00.084 2.155c.182.587.46 1.14.82 1.638 1.835 2.776 4.267 5.303 7.307 6.73 3.04 1.427 6.739 1.666 9.74.172a1.73 1.73 0 00.748-.6 2.08 2.08 0 00.111-1.282 8.768 8.768 0 01.976-4.909c.558-1.11 1.39-2.066 1.841-3.22a11.39 11.39 0 00.525-3.988c.044-3.481-.196-6.963.686-10.328z"/><path fill="#FFF" d="M135 145h29v29h-29z"/><path d="M142.88 160.695c-.038-.251-.248-.448-.358-.677a1.376 1.376 0 01-.126-.49v.272c-.02.272.025.545.132.796.088.186.242.35.319.546.039-.146.05-.298.033-.447zm9.829-1.751a7.037 7.037 0 00-.314 2.181c.072-.536.176-1.068.314-1.592.091-.4.123-.812.093-1.222a4.904 4.904 0 01-.093.633z" fill="#000" opacity=".1"/></g></svg>