<svg xmlns="http://www.w3.org/2000/svg" width="122" height="146"><g fill="none" fill-rule="evenodd"><path fill="#FFDC64" d="M72.127 113.644l-11.984-1.103-4.761-10.965c-.333-.768-1.43-.768-1.764 0l-4.76 10.966-11.985 1.102c-.84.077-1.178 1.113-.545 1.664l9.042 7.88-2.646 11.647c-.185.816.702 1.456 1.427 1.029l10.349-6.096 10.349 6.096c.725.427 1.612-.213 1.427-1.029l-2.646-11.647 9.042-7.88c.633-.551.294-1.587-.545-1.664z"/><path fill="#FFC850" d="M55.617 101.576c-.337-.768-1.448-.768-1.785 0l-4.818 10.966-12.13 1.102c-.85.077-1.193 1.113-.552 1.664l9.152 7.88-2.678 11.647c-.188.816.71 1.456 1.444 1.029l2.338-1.36c.324-13.055 6.512-22.247 11.412-27.506l-2.383-5.422z"/><path fill="#FFDC64" d="M97.655 45.508l-18.462-1.701-7.334-16.919c-.514-1.184-2.204-1.184-2.718 0l-7.334 16.919-18.462 1.701c-1.293.12-1.815 1.716-.84 2.568l13.93 12.157-4.077 17.97c-.285 1.258 1.083 2.245 2.2 1.587L70.5 70.385l15.943 9.405c1.116.658 2.484-.329 2.199-1.587l-4.077-17.97 13.93-12.157c.975-.852.453-2.449-.84-2.568z"/><path fill="#FFC850" d="M72.318 26.888c-.521-1.184-2.238-1.184-2.76 0l-7.446 16.919-18.746 1.701c-1.313.12-1.844 1.716-.853 2.568l14.144 12.157-4.14 17.97c-.29 1.258 1.1 2.245 2.233 1.587l3.613-2.1c.5-20.14 10.065-34.323 17.637-42.436l-3.682-8.366z"/><path fill="#FFDC64" d="M121.552 6.864l-6.154-.599-2.445-5.952a.484.484 0 00-.906 0l-2.445 5.952-6.154.599c-.43.042-.605.604-.28.903l4.644 4.278-1.36 6.323c-.094.442.362.79.734.558l5.314-3.31 5.314 3.31c.372.232.828-.116.733-.558l-1.359-6.323 4.644-4.278c.325-.3.15-.861-.28-.903z"/><path fill="#FFC850" d="M112.809.313a.475.475 0 00-.893 0l-2.41 5.952-6.064.599c-.425.042-.597.604-.276.903l4.576 4.278-1.34 6.323c-.093.442.356.79.723.558l1.169-.739c.162-7.086 3.256-12.076 5.706-14.931L112.809.313z"/><path fill="#FFDC64" d="M18.552 133.864l-6.154-.599-2.445-5.952a.484.484 0 00-.906 0l-2.445 5.952-6.154.599c-.43.042-.605.604-.28.903l4.644 4.278-1.36 6.323c-.094.442.362.79.734.558l5.314-3.31 5.314 3.31c.372.232.828-.116.733-.558l-1.359-6.323 4.644-4.278c.325-.3.15-.861-.28-.903z"/><path fill="#FFC850" d="M9.809 127.313a.475.475 0 00-.893 0l-2.41 5.952-6.064.599c-.425.042-.597.604-.276.903l4.576 4.278-1.34 6.323c-.093.442.356.79.723.558l1.169-.739c.162-7.086 3.256-12.076 5.706-14.931l-1.191-2.943z"/></g></svg>