<svg xmlns="http://www.w3.org/2000/svg" xmlns:xlink="http://www.w3.org/1999/xlink" viewBox="0 0 423.88 608.58"><defs><linearGradient id="linear-gradient" x1="203.57" y1="598.97" x2="203.4" y2="561.22" gradientUnits="userSpaceOnUse"><stop offset="0" stop-color="#fff" stop-opacity="0"/><stop offset="1" stop-color="#5a00ff"/></linearGradient><linearGradient id="linear-gradient-2" x1="271.14" y1="386.96" x2="267.03" y2="363.52" gradientUnits="userSpaceOnUse"><stop offset="0" stop-color="#fff" stop-opacity="0"/><stop offset="1" stop-color="#f7931e"/></linearGradient><linearGradient id="linear-gradient-3" x1="-522.41" y1="554.16" x2="-526.52" y2="530.72" gradientTransform="translate(665.53 -161.14)" xlink:href="#linear-gradient-2"/><linearGradient id="linear-gradient-4" x1="159.2" y1="288.63" x2="243.88" y2="288.63" xlink:href="#linear-gradient-2"/><linearGradient id="linear-gradient-5" x1="204.16" y1="332" x2="204.11" y2="326.59" xlink:href="#linear-gradient-2"/><linearGradient id="linear-gradient-6" x1="163.69" y1="405.89" x2="255.47" y2="405.89" gradientUnits="userSpaceOnUse"><stop offset="0" stop-color="#fff"/><stop offset="1" stop-color="#5a00ff"/></linearGradient><linearGradient id="linear-gradient-7" x1="204.8" y1="432.08" x2="203.91" y2="465.86" xlink:href="#linear-gradient-2"/><linearGradient id="linear-gradient-8" x1="204.12" y1="477.96" x2="204.15" y2="470.12" xlink:href="#linear-gradient-2"/><linearGradient id="linear-gradient-9" x1="204.87" y1="333.16" x2="204.43" y2="343.24" xlink:href="#linear-gradient-2"/><style>.cls-4{fill:#16344d}.cls-36,.cls-40,.cls-5{fill:#00e5ff}.cls-6{fill:#5a00ff}.cls-26,.cls-27,.cls-30,.cls-35,.cls-39{fill:none}.cls-26{stroke:#5a00ff}.cls-27,.cls-30,.cls-36,.cls-40,.cls-41{stroke-miterlimit:10}.cls-27,.cls-30,.cls-34,.cls-35{stroke-width:2px}.cls-27,.cls-30,.cls-34,.cls-35,.cls-36{stroke:#00e5ff}.cls-23,.cls-34,.cls-41,.cls-42{fill:#fff}.cls-20{fill:#4205d8}.cls-22{opacity:.78}.cls-26,.cls-34,.cls-35,.cls-39,.cls-42{stroke-linecap:round;stroke-linejoin:round}.cls-26,.cls-39,.cls-40{stroke-width:3px}.cls-27,.cls-29{opacity:.31}.cls-28{fill:#48ecff}.cls-33{fill:#a6f6ff}.cls-39,.cls-40,.cls-41,.cls-42{stroke:#fff}.cls-42{stroke-width:1.5px}</style></defs><g style="isolation:isolate"><g id="Layer_2" data-name="Layer 2"><g opacity=".15" id="Shadow"><path d="M263.83 608.58H140.92l1.25-53.05A12.85 12.85 0 01155 542.14c24.05.06 74.12 0 98.15-.09a12.85 12.85 0 0112.87 13.4z" style="mix-blend-mode:multiply" fill="url(#linear-gradient)" opacity=".35"/><path class="cls-4" d="M179.89 504.41H229v19.38a18.47 18.47 0 01-18.47 18.47h-12.17a18.47 18.47 0 01-18.47-18.47v-19.38z" transform="rotate(180 204.445 523.34)"/><path class="cls-5" transform="rotate(180 203.375 532.16)" d="M187.75 530.75h31.24v2.82h-31.24z"/><path class="cls-5" transform="rotate(180 204.115 521.93)" d="M188.5 520.52h31.24v2.82H188.5z"/><path class="cls-6" d="M229 526.72h15.54v15.54h-7.42a8.13 8.13 0 01-8.13-8.13v-7.42l.01.01z" transform="rotate(180 236.775 534.495)"/><path class="cls-6" d="M172.47 526.72h7.42v15.54h-15.55v-7.42a8.13 8.13 0 018.13-8.12z"/></g><g id="Right_Sleeve" data-name="Right Sleeve"><rect class="cls-6" x="260.29" y="361.11" width="17.48" height="27.58" rx="7.94" ry="7.94"/><rect x="260.29" y="361.11" width="17.48" height="27.58" rx="7.94" ry="7.94" style="mix-blend-mode:multiply" fill="url(#linear-gradient-2)" opacity=".35"/></g><g id="Left_Sleeve" data-name="Left Sleeve"><rect class="cls-6" x="131.19" y="361.1" width="17.48" height="27.58" rx="7.94" ry="7.94" transform="rotate(-154.26 139.907 374.895)"/><rect x="131.2" y="361.11" width="17.48" height="27.58" rx="7.94" ry="7.94" transform="rotate(25.74 139.945 374.967)" style="mix-blend-mode:multiply" fill="url(#linear-gradient-3)" opacity=".35"/></g><g id="Top"><path stroke-width="2" stroke-miterlimit="10" stroke="#5a00ff" fill="none" d="M210.13 254.37l6.91-17.77"/><circle class="cls-5" cx="218.48" cy="232.97" r="4.26"/></g><path d="M211.56 226.88l-3.52-3.65m12.67.95l1.93-4.68m4.39 12.25l4.93-1.17" stroke="#00e5ff" stroke-miterlimit="10" fill="none" id="Splash"/><g id="Body"><path class="cls-6" d="M191.17 251.79h30.34a32 32 0 0132 32v31a12.5 12.5 0 01-12.5 12.5H171.7a12.5 12.5 0 01-12.5-12.5v-31a32 32 0 0132-32z"/><path d="M169.28 317.51c0-32.68 27.56-59.17 61.55-59.17 4.07 0 9.5.6 13 2-6-4.34-14.68-8.55-23.14-8.55h-22.5c-21 0-38.87 8.39-38.87 28.61l-.17 31.18c0 5.9 7.55 12.08 11.52 13.89a30.3 30.3 0 01-1.44-7.35z" style="mix-blend-mode:multiply" fill="url(#linear-gradient-4)" opacity=".35"/><path d="M198.48 266.26h16.07a23.67 23.67 0 0123.67 23.67v25.45h-63.41v-25.45a23.67 23.67 0 0123.67-23.67z" opacity=".34" fill="#fff"/><circle class="cls-5" cx="195.41" cy="278.63" r="3.14"/><circle class="cls-5" cx="221.57" cy="278.63" r="3.14"/><path fill="#4605e5" d="M185.54 327.26h37.2v6.71h-37.2z"/><path style="mix-blend-mode:multiply" opacity=".47" fill="url(#linear-gradient-5)" d="M185.54 327.26h37.2v4.11h-37.2z"/><path d="M181.63 334h45.68a1.59 1.59 0 011.59 1.59v6.21H180v-6.21a1.59 1.59 0 011.63-1.59z" fill="#6238e5"/><path class="cls-6" d="M253.5 470.09h-98.07a12.92 12.92 0 01-12.91-13.46l4.56-102.46A12.92 12.92 0 01160 341.78h88.95a12.91 12.91 0 0112.91 12.39l4.57 102.46a12.93 12.93 0 01-12.93 13.46z"/><path d="M253.68 470h-98.33a12.93 12.93 0 01-12.94-13.45L147 354.16a12.94 12.94 0 0113-12.38h89.18a12.94 12.94 0 0112.95 12.38l4.57 102.4A12.93 12.93 0 01253.68 470z" style="mix-blend-mode:multiply" opacity=".75" fill="url(#linear-gradient-6)"/><path d="M143 444.75h122.92l.49 11.83A12.84 12.84 0 01253.54 470c-24-.06-74.12 0-98.15.09a12.85 12.85 0 01-12.87-13.4z" style="mix-blend-mode:multiply" fill="#fbb03b" opacity=".35"/><path d="M142.68 444.75H265.6l.49 11.83A12.85 12.85 0 01253.21 470c-24.05-.06-74.12 0-98.14.09a12.86 12.86 0 01-12.88-13.4z" style="mix-blend-mode:multiply" fill="url(#linear-gradient-7)" opacity=".35"/><path d="M168.17 358.69L164 429.75a5.94 5.94 0 006 6.25h70.28a5.93 5.93 0 005.94-6.07l-1.88-71.06a5.93 5.93 0 00-5.93-5.8h-64.32a5.93 5.93 0 00-5.92 5.62z" style="mix-blend-mode:multiply" stroke="#fbb03b" stroke-miterlimit="10" fill="none" opacity=".35"/><rect class="cls-20" x="160.06" y="374.73" width="14.75" height="6.92" rx="2.07" ry="2.07"/><rect class="cls-20" x="158.19" y="412.11" width="14.75" height="6.92" rx="2.07" ry="2.07"/><circle cx="205.83" cy="397.07" r="26.97" opacity=".32" fill="#fff"/><g class="cls-22"><circle class="cls-23" cx="207.78" cy="382.51" r="5.41"/><circle class="cls-23" cx="189.24" cy="404.92" r="5.41"/><path class="cls-23" transform="rotate(-50.44 198.104 394.476)" d="M186.6 392.94h23.05v3.09H186.6z"/></g><g class="cls-22"><circle class="cls-23" cx="229.78" cy="376.72" r="5.41"/><circle class="cls-23" cx="211.24" cy="399.12" r="5.41"/><path class="cls-23" transform="rotate(-50.44 220.11 388.679)" d="M208.6 387.15h23.05v3.09H208.6z"/></g><path class="cls-4" d="M179.58 469.85h49.12v19.38a18.47 18.47 0 01-18.47 18.47h-12.18a18.47 18.47 0 01-18.47-18.47v-19.38z"/><path class="cls-5" d="M189.59 478.54h31.24v2.82h-31.24zm-.74 10.23h31.24v2.82h-31.24z"/><path class="cls-6" d="M164 469.85h15.54v15.54h-7.42a8.13 8.13 0 01-8.13-8.13v-7.42l.01.01z"/><path class="cls-6" d="M236.83 469.85h7.42v15.54H228.7V478a8.13 8.13 0 018.13-8.15z" transform="rotate(-180 236.47 477.62)"/><path style="mix-blend-mode:multiply" fill="url(#linear-gradient-8)" opacity=".35" d="M164.04 469.85h80.21v4.43h-80.21z"/><path d="M181.74 334h45.78a1.59 1.59 0 011.59 1.59v6.21h-49v-6.21a1.59 1.59 0 011.63-1.59z" style="mix-blend-mode:multiply" opacity=".16" fill="url(#linear-gradient-9)"/></g><path class="cls-26" d="M269.82 388.69l7.94 32.42 50.99-29.49" id="Right_Arm" data-name="Right Arm"/><circle class="cls-6" cx="278.22" cy="421.11" r="4.54" id="Right_Elbow" data-name="Right Elbow"/><circle class="cls-6" cx="333.89" cy="386.04" r="7.84" id="Right_Palm" data-name="Right Palm"/><path class="cls-26" d="M135.44 385.42l-12.73 26.18-57.7-77.87" id="Left_Arm" data-name="Left Arm"/><circle class="cls-6" cx="122.51" cy="411.22" r="4.54" id="Left_Elbow" data-name="Left Elbow"/><circle class="cls-6" cx="65.01" cy="333.97" r="7.84" id="Left_Palm" data-name="Left Palm"/><path class="cls-27" d="M27.36 271.26c9.1-115.62 84.79-205.85 176.81-205.85 98.16 0 177.73 102.66 177.73 229.29" id="Outline_One" data-name="Outline One"/><path class="cls-27" d="M62.58 271.39c0-36.35 8.23-70.22 22.42-98.68a180.39 180.39 0 0123.81-36.35" id="Shape_Two" data-name="Shape Two"/><circle class="cls-28" cx="117.14" cy="127.95" r="6.43" id="Shape_Three" data-name="Shape Three"/><g class="cls-29" id="Shape_Four" data-name="Shape Four"><path class="cls-30" d="M131.79 114.36c.67-.51 1.33-1 2-1.5"/><path d="M138 109.89a128 128 0 0114.19-8.44 112.6 112.6 0 01100.17-1.89" stroke-dasharray="5.12 5.12" stroke="#00e5ff" stroke-width="2" stroke-miterlimit="10" fill="none"/><path class="cls-30" d="M254.63 100.67c.74.36 1.49.74 2.23 1.12"/></g><circle class="cls-28" cx="273.1" cy="111.39" r="4.97" id="Shape_Five" data-name="Shape Five"/><g class="cls-29" id="Shape_Six" data-name="Shape Six"><path class="cls-30" d="M282.77 119.43c.75.65 1.5 1.31 2.24 2"/><path d="M289.08 125.21a167.77 167.77 0 0126 32.56" stroke-dasharray="5.57 5.57" stroke="#00e5ff" stroke-width="2" stroke-miterlimit="10" fill="none"/><path class="cls-30" d="M316.48 160.15c.51.85 1 1.72 1.52 2.58"/></g><circle class="cls-28" cx="322.93" cy="172.74" r="6.91" id="Shape_Seven" data-name="Shape Seven"/><path class="cls-27" d="M328 182.75c11.32 26.25 17.76 56.48 17.76 88.64" id="Shape_Eight" data-name="Shape Eight"/><g id="Brain"><circle class="cls-33" cx="54.41" cy="224.18" r="54.41"/><circle class="cls-28" cx="54.41" cy="224.18" r="42.36"/><path class="cls-34" d="M66.22 198.15l10.18 5.87v8.43l8.69 5.2v16.78l-8.41 5.33v7.22l-14.82 9.34-7.45-4.39.09-52.52 6.97-4 4.75 2.74"/><path class="cls-35" d="M65.86 208.22l-2.83 2.29v8.38l6.38 4.15v8.06l-6.38 3.42v9.02l1.36 1.59m12.01-32.68l-4.55 2.65M85 227.26h-5.25m-3.25 12.61l-4.19-1.66m-17.82-10.95h5.37"/><path class="cls-34" d="M54.32 199.41l-6.98-4-14.93 8.61v8.43l-8.68 5.2v16.78l8.41 5.33v7.22l14.81 9.34 7.46-4.39-.09-52.52z"/><path class="cls-35" d="M42.95 208.22l2.83 2.29v8.38l-6.37 4.15v8.06l6.37 3.42v9.02l-1.35 1.59m-12.02-32.68l4.56 2.65m-13.15 12.16h5.24m3.25 12.61l4.19-1.66m17.82-10.95h-5.36"/><path class="cls-36" transform="rotate(-180 42.51 208.41)" d="M41.33 207.23h2.36v2.36h-2.36z"/><path class="cls-36" transform="rotate(-180 37.03 215.1)" d="M35.85 213.92h2.36v2.36h-2.36z"/><path class="cls-36" transform="rotate(-180 29.18 227.265)" d="M28 226.08h2.36v2.36H28z"/><path class="cls-36" transform="rotate(-180 36.63 238.075)" d="M35.45 236.89h2.36v2.36h-2.36z"/><path class="cls-36" transform="rotate(-180 43.69 245.925)" d="M42.51 244.74h2.36v2.36h-2.36z"/><path class="cls-36" transform="rotate(-180 49.075 227.265)" d="M47.9 226.08h2.36v2.36H47.9z"/><path class="cls-36" d="M58.56 226.08h2.36v2.36h-2.36zm6.57-18.85h2.36v2.36h-2.36zm5.47 6.69h2.36v2.36H70.6zm7.85 12.16h2.36v2.36h-2.36zM71 236.89h2.36v2.36H71zm-7.05 7.85h2.36v2.36h-2.36z"/></g><g id="Graph"><circle cx="207.59" cy="65.51" r="65.51" opacity=".49" fill="#a6f6ff"/><circle class="cls-28" cx="207.59" cy="65.51" r="58.22"/><path d="M180.61 35.09v70.78m-8.88-17.47h71.26" stroke="#fff" stroke-width="3" stroke-miterlimit="10" fill="none"/><path class="cls-39" d="M194.5 84.88V61.91m17.42 21.86V40.26"/><circle class="cls-40" cx="194.5" cy="57.27" r="3.96"/><path class="cls-39" d="M230.4 84.88V61.91"/><circle class="cls-40" cx="230.4" cy="57.27" r="3.96"/><circle class="cls-40" cx="211.92" cy="35.77" r="3.96"/></g><g id="Analytics"><circle class="cls-33" cx="369.97" cy="262.02" r="53.91"/><circle class="cls-28" cx="369.97" cy="262.02" r="41.97"/><circle class="cls-41" cx="340.43" cy="279.1" r="2.91"/><circle class="cls-41" cx="353.46" cy="254.89" r="2.91"/><circle class="cls-41" cx="395.47" cy="240.36" r="2.91"/><circle class="cls-42" cx="375.3" cy="271.02" r="10.94"/><path class="cls-42" d="M341.83 276.55l9.77-18.75m4.76-1.28l9.37 8.39m16.17-2.61l12.27-19.03"/><path class="cls-28" d="M379 266.08a.32.32 0 01.21.34v.86a.21.21 0 01-.2.22h-2.07v.08a2.81 2.81 0 01.47 1.06c0 .09.06.11.15.11h1.3c.25 0 .34.09.34.34v.76c0 .24-.09.34-.34.34h-1.28c-.09 0-.12 0-.13.11a3.23 3.23 0 01-.87 1.71 3.79 3.79 0 01-1.29.84 4.87 4.87 0 01-1.18.3h-.14v.07l1.13 1.26c.39.45.78.9 1.16 1.36l1.56 1.87a.3.3 0 01-.07.52h-1.86a1.8 1.8 0 01-.2-.19l-.91-1.08-.8-.93-1.35-1.55-1.17-1.28a.39.39 0 01-.11-.27v-1c0-.23.11-.33.34-.33h.9a4.3 4.3 0 001.55-.24 1.86 1.86 0 00.95-.7 1.46 1.46 0 00.24-.52h-3.75a.21.21 0 01-.21-.22v-1c0-.13.09-.21.23-.23h3.6a.34.34 0 000-.08 1.53 1.53 0 00-.83-.67 3.47 3.47 0 00-1.32-.23h-1.32c-.24 0-.34-.1-.35-.34s0-.69 0-1a.33.33 0 01.21-.34z"/></g></g></g></svg>