<svg xmlns="http://www.w3.org/2000/svg" width="1027" height="406" viewBox="0 0 1027 406">
    <defs>
        <linearGradient id="a" x1="50.014%" x2="50.014%" y1="99.996%" y2="0%">
            <stop offset="0%" stop-color="gray" stop-opacity=".25"/>
            <stop offset="54%" stop-color="gray" stop-opacity=".12"/>
            <stop offset="100%" stop-color="gray" stop-opacity=".1"/>
        </linearGradient>
    </defs>
    <g fill="none" fill-rule="evenodd">
        <path stroke="#0D2FCF" stroke-dasharray="12.04" stroke-width="6" d="M-141.156 356C-155.799 299.66-82.748 95.993 60.527 49.882c143.276-46.111 63.66 153.833 195.318 174.414 131.657 20.581 121.279-126.61 165.879-156.572 44.6-29.962 64.615 21.018 97.276 32.587"/>
        <path fill="#051C87" d="M530 100.278l-12 20.563L606 135l-56.68-39z"/>
        <path fill="#0D2FCF" d="M544.45 77L606 135l-76-35.176zM521 133.391L606 135l-79.348-28z"/>
        <g transform="translate(523)">
            <path fill="#4285F4" d="M292.835 46.33c-32.313-.931-63.086-9.625-92.452-19.137-29.367-9.511-58.519-20.032-90.057-25.07-20.283-3.24-43.48-3.699-59.823 5.36-15.73 8.717-20.81 23.77-23.542 37.74-2.06 10.506-3.267 21.567 2.367 31.4 3.896 6.823 10.856 12.568 15.657 19.107 16.704 22.762 4.9 50.824-13.207 73.045-8.493 10.423-18.345 20.368-24.9 31.464-6.556 11.095-9.575 23.818-3.853 35.123 5.684 11.208 19.227 19.643 33.9 25.573 29.8 12.036 64.918 15.481 99.159 17.435 75.797 4.318 152.003 2.437 228.004.575 28.124-.692 56.375-1.393 84.047-5.019 15.364-2.012 31.226-5.204 42.369-12.913 14.162-9.784 17.668-26.357 8.181-38.627-15.915-20.583-59.9-25.695-71.048-47.783-6.127-12.158.165-25.705 9.063-36.98 19.09-24.19 51.091-45.41 52.776-73.06 1.154-19.004-14.225-38.008-38.01-46.993-24.93-9.42-59.502-8.236-77.92 7.358-18.901 16.05-52.183 22.244-80.711 21.401z" opacity=".1"/>
            <ellipse cx="211.5" cy="392" fill="#4285F4" opacity=".1" rx="141.5" ry="14"/>
            <path fill="url(#a)" fill-rule="nonzero" d="M483.324 185.88c.293-.796-1.903-5.212-1.903-5.43 0-.219-2.269-2.682-2.269-4.057 0-1.375-3.005-4.343-3.005-4.343s-4.025-1.666-4.464-5.285c-.439-3.62-4.825-3.697-4.835-3.697 0 0 0-.33.03-.831 0-1.127-.035-3.138-.542-4.236a4.313 4.313 0 0 0-2.493-2.104s-.44-2.822-1.317-3.692a4.146 4.146 0 0 1-1.03-3.906c.44-1.374-.585-4.858-2.712-5.343-2.127-.486-4.537-1.302-4.537-1.302s-.24.043-.586.092l-.293-.092c-.51.093-1.024.156-1.541.19a1.884 1.884 0 0 1-1.24-.409c-.736-.797-6.669-2.317-7.767-2.317-1.097 0-4.249-1.458-4.249-1.458l-3.142-2.39c-.883-.67-2.517-3.4-2.756-3.784l-.03-.054a13.079 13.079 0 0 1-.663-1.904 17.22 17.22 0 0 0 2.722-3.726c.078-.141.147-.287.215-.428.165-.002.33-.029.488-.077.063 0 .127-.049.19-.073a3.185 3.185 0 0 0 1.556-1.851 4.71 4.71 0 0 0 .142-.486c0-.053 0-.112.034-.165.034-.054.049-.219.068-.33.02-.112.025-.127.034-.185.01-.058.035-.219.05-.33.014-.112 0-.122 0-.18 0-.141.033-.277.053-.413.05-.514.126-1.025.23-1.53.438-1.944 1.624-3.624 2.468-5.441a10.334 10.334 0 0 0 .624-1.671l.074-.273c.053-.213.102-.432.146-.65 0-.098.039-.195.054-.292.048-.301.092-.602.117-.908a11.217 11.217 0 0 0-.727-5.106c-.552-1.36-1.366-2.585-1.922-3.945-.845-2.06-1.064-4.372-2.093-6.354-1.723-3.294-5.782-4.94-9.119-3.702-1.595.588-2.976 1.734-4.59 2.25-2.167.684-4.48.17-6.719-.142-2.24-.31-4.718-.335-6.518 1.123-2.073 1.676-2.644 4.828-4.59 6.67-.815.772-1.835 1.268-2.699 1.982a4.373 4.373 0 0 0-1.351 1.84c0 .054-.034.103-.049.156-.014.054-.034.122-.049.185-.014.063-.029.146-.039.219-.01.072 0 .102 0 .15-.01.13-.01.26 0 .389.014.122.036.244.064.364v.102c0 .034.058.2.092.301a.27.27 0 0 0 0 .059c.04.111.083.218.127.33l.074.165.058.136c.286.535.513 1.098.678 1.681.091.369.07.756-.063 1.113a3.402 3.402 0 0 1-.815 1.059 15.05 15.05 0 0 0-3.303 5.27c-.083.224-.166.448-.239.68l.103.025c.208.064.422.11.639.14.122 0 .244.03.37.04.501.026 1.003-.013 1.493-.117.122-.024.25-.053.371-.087a9.231 9.231 0 0 0 1.464-.54v.69a17.224 17.224 0 0 0 9.606 15.405c0 .156.044.316.063.486.02.17.035.262.05.393l-.196-.19s-1.322-.65-2.566 1.23c-1.244 1.88-3.586 2.754-3.586 2.754s-13.329 2.1-13.841 3.838l-6.225.36s-2.2.291-2.44 4.858c-.239 4.566-1.39 4.999-1.39 4.999s-2.561 4.488-2.342 6.8c.22 2.313-1.951 3.48-1.951 3.48l-.293 4.124s-2.44-.36-3.079 2.463c-.639 2.822-1.83 4.129-1.83 4.129s-4.029 3.333-4.249 6.155l-2.488 1.52s-5.786-1.301-7.103-3.619l-.405-.378a.364.364 0 0 1-.034-.059.136.136 0 0 0 0 .03c-.869-.817-2.703-2.517-2.44-2.128.171.364.213.775.117 1.165l-.429-.485-1.151-1.273s-9.353-8.745-14.846-9.415c-.073-.14-.425-1.516-1.361-.656a7.588 7.588 0 0 0-2.484 5.575 7.588 7.588 0 0 0 2.43 5.599l8.757 8.147.225.165 1.883 2.429a29.085 29.085 0 0 0-.805 2.162s0 .043-.025.063c-.043.145-.092.281-.136.417l-.044.146c-.04.136-.083.272-.122.399-.04.126-.044.16-.068.238-.025.077 0 .092-.04.136a30.521 30.521 0 0 0-.41 1.598l-.487-.15.488.203v.078l-.03.15.45.195c2.566 1.112 15.372 6.704 16.03 7.554.733.938 5.563 3.692 9.958 1.375 4.396-2.317 5.367-5.868 5.367-5.868s4.245-5.864 4.39-6.734c.147-.87 3.445-1.885 3.445-1.885s.293 9.716-1.39 13.253c-1.683 3.537-4.835 19.267-4.835 19.267.206-.041.416-.054.625-.039-.118.568-.186.909-.186.909.257-.047.52-.047.776 0-.234 1.787-1.58 10.085-1.58 10.085s-.44 3.765-1.172 5.067-.805 8.113-.805 8.113l-1.17 4.92c.133.291.281.575.443.85 0 0 1.26 2.78 3.372 4.34a8.86 8.86 0 0 1-.59 2.253 7.777 7.777 0 0 0-.586 3.474s-1.244 5.577-1.098 7.17c.146 1.594-.805 5.504-.805 5.504l-1.361 12.563s-.878 10.935-.44 13.909c.44 2.973-.297 7.02-.297 7.02s.878 8.617.659 9.56c-.22.942-1.317 4.994-.659 7.243.659 2.25.298 8.4.298 8.4s.439 8.108.946 10.717c.508 2.608-.146 5.94-.146 5.94s-.488 5.573-.732 5.573-2.122 3.838 1.756 7.608c3.88 3.77 1.464 3.182 1.464 3.182s-3.074-1.52-2.713 1.593c.352 2.963.835 2.191.879 2.108l-.732 2.38.488.074-.425.486c-.439.552-.929 1.063-1.463 1.525-.883.65-.976 2.099-.976 2.099s-5.415 5.868-10.47 8.836c-2.659 1.565-4.952 2.886-5.952 3.979-.903.972-.756 1.778 1.117 2.395 3.957 1.302 10.91 1.943 15.89.292a18.577 18.577 0 0 0 7.762-5s3.152-1.593 6.23-1.015c3.08.578 9.226-3.4 9.226-3.4l-.112-1.03-.327-2.959a2.32 2.32 0 0 1-.512-1.807 9.342 9.342 0 0 0-.259-2.604c-.048-.286-.107-.573-.16-.84l.56-.102s-.727-3.697.59-4.421c1.318-.724.947-10.202.947-10.202s-1.678-2.171-2.561-2.53c-.883-.36-.073-4.859.078-5.437.151-.578 1.317-11.805 1.317-11.805s-.439-3.546.147-5.067c.585-1.52-.703-7.35-.703-7.35s-.44-.724.37-1.593c.81-.87.489-8.619.489-8.619s-.069-3.91-.069-4.926c0-1.015.879-4.707 1.684-5.936.805-1.23.292-5.072.292-5.072l.044-.286c0-.112.04-.248.068-.413l.064-.384c.357-2.134.84-4.244 1.449-6.32.976-3.042 2.049-8.4 2.049-8.4l6.83-17.683.078-.209s3.147 5.796 3.147 11.173c0 0 .805 6.447.586 8.186-.22 1.74.648 9.876.648 9.876s.952 11.733.952 12.243c0 .51 1.17 9.56 1.907 10.935.737 1.375-.736 5.577-1.175 6.01-.44.432.146 11.08.146 11.08s-1.098 8.4-1.317 10.14c-.22 1.738-1.098 8.404-.366 11.007.732 2.604.439 2.969.439 2.969s2.64 2.681 1.098 2.915a4.023 4.023 0 0 0-2.667 1.979 3.993 3.993 0 0 0-.26 3.301 67.487 67.487 0 0 0 3.224 7.773s.454-.102 1.21-.253v.86l.088 4.314s.488 4.13.22 5.072c-.215.69-.488 3.935-.65 5.63-.053.617-.082 1.03-.082 1.03s0 3.838 8.128 2.682c8.128-1.156 9.591-4.343 9.591-4.343s0-.15.059-.399c.122-.733.385-2.288.6-3.152.293-1.161-2.342-6.374-2.342-6.374s-.439-3.546-1.176-4.343a3.838 3.838 0 0 1-.585-1.52 13.777 13.777 0 0 1-.176-.895c.182.024.363.056.542.098 0 0-.44-2.536 1.249-3.333 1.688-.797 1.244-2.458 1.024-3.187-.22-.729.659-4.78.659-4.78a2.35 2.35 0 0 1 .585-2.313c1.03-1.02 1.83-8.112 1.83-8.112l.146-27.375s.517-4.858-.068-6.802c-.586-1.943-1.176-5.717-.37-6.733.804-1.015.072-5.718.072-5.718s0-9.925 1.103-12.383c1.102-2.458.732-18.033.732-18.033l.288-10.201s2.395-2.255 1.83-14.006c2.55-.16 5.43-.253 5.854.097.805.656 6.005 3.984 9.079 1.885.659-.292 3.659-2.823 3.659-2.823l-1.288-21.715c.805 1.21 1.293 2.016 1.293 2.016 0-3.04 8.64-12.893 8.64-12.893s8.055-10.352 9.811-11.586c1.757-1.234 5.201-7.749 5.201-7.749a31.35 31.35 0 0 1 1.761-3.62c.834-1.335-1.805-4.813-1.512-5.61zm-18.9 7.599c-2.196.218-6.83 5.217-6.884 6.315-.034.574-.522 1.341-.976 1.943-.034-.437-.073-.884-.107-1.335-.518-6.398-1.079-14.196-.825-14.953.444-1.302.293-7.166.293-7.166l.078-.112c1.463 4.542 6.064 9.9 6.064 9.9s.805 2.318 1.756 2.391c.952.073.6 3.017.6 3.017z"/>
            <path fill="#65617D" d="M346 192.124s2.739-15.045 11.556-15.124L364 190.881l-4.296 3.104s-9.333.31-13.704-1.861z"/>
            <path fill="#000" d="M364 190.878l-4.296 3.106s-6.57.22-11.266-.991c-.837-.208-1.654-.5-2.438-.871 0 0 0-.084.05-.242v-.057a35.17 35.17 0 0 1 1.667-5.53c.276-.678.581-1.375.912-2.073 1.291-2.624 3.104-5.153 5.587-6.417a7.322 7.322 0 0 1 2.94-.803h.39l.14.31 2.178 4.69 4.136 8.878z" opacity=".1"/>
            <path fill="#65617D" d="M435.561 247.624s9.025-.876 9.816-.218c.79.659 5.917 4.023 8.952 1.9 3.034-2.122 1.01-9.514 1.01-9.806 0-.292-.288-10.76-.288-10.76l-5.415-7.392-6.781-12.953L429 207l.361 20.572-.073 10.538 6.273 9.514z"/>
            <path fill="#000" d="M435.561 247.624s9.025-.876 9.816-.218c.79.659 5.917 4.023 8.952 1.9 3.034-2.122 1.01-9.514 1.01-9.806 0-.292-.288-10.76-.288-10.76l-5.415-7.392-6.781-12.953L429 207l.361 20.572-.073 10.538 6.273 9.514z" opacity=".1"/>
            <path fill="#FBBEBE" d="M357 176.145s-.737 8.715-6.336 8.855c0 0-1.589-.927-3.726-2.472-4.921-3.568-12.726-10.43-10.57-16.813 3.094-9.14 18.127 7.726 18.127 7.726l1.15 1.255 1.355 1.449z"/>
            <path fill="#000" d="M357 176.406s-.7 8.458-6.014 8.594c0 0-1.508-.9-3.537-2.4l-.449-.576a7.042 7.042 0 0 0 2.913.778 3.941 3.941 0 0 0 3.782-2.376 29.623 29.623 0 0 0 1.47-3.355 9.71 9.71 0 0 0 .549-2.071l1.286 1.406z" opacity=".1"/>
            <path fill="#E7EFFD" d="M353.494 193l-1.232-1.574-4.149-5.313-2.113-2.71a7.165 7.165 0 0 0 3 .802c1.378.034 2.921-.482 3.895-2.443a31.075 31.075 0 0 0 1.514-3.463c.682-1.932.672-2.898.429-3.25-.243-.353 1.529 1.294 2.381 2.096l.03.029.399.372.146.29 2.089 4.138v.174c.204 1.328.91 9.669-6.389 10.852z"/>
            <path fill="#65617D" d="M397 377.552s-6.038 3.989-9.054 3.43c-3.017-.558-6.11 1.02-6.11 1.02a18.191 18.191 0 0 1-7.622 5.004c-4.857 1.666-11.706 1.01-15.587-.295-1.837-.617-1.987-1.411-1.103-2.396.971-1.098 3.235-2.416 5.829-3.985 4.96-2.97 10.273-8.821 10.273-8.821s.073-1.47.938-2.098c.532-.462 1.02-.974 1.457-1.529a53.06 53.06 0 0 0 1.496-1.882l17.759.52s.3 1.288.539 2.607c.202.855.286 1.734.248 2.612a2.378 2.378 0 0 0 .485 1.808l.32 2.941.132 1.064zM434.978 381.998c-.213.855-.484 2.385-.586 3.104l-.063.396s-1.452 3.143-9.379 4.287c-7.926 1.144-7.95-2.646-7.95-2.646l.077-1.018c.14-1.67.427-4.87.64-5.552.28-.926-.218-5-.218-5l-.083-4.253-.063-2.955L430.538 367c.081.983.223 1.96.426 2.925.08.536.277 1.049.576 1.502.717.786 1.143 4.286 1.143 4.286s2.58 5.141 2.295 6.285z"/>
            <path fill="#000" d="M396.484 367.537s.288 1.186.516 2.399c-1.835.329-9.85 1.677-11.852.735-2.271-1.069-7.148-1.669-7.148-1.669l.079-.27c.738-.848 1.43-1.732 1.43-1.732l16.975.537zM430 369.711c-3.189-.523-10.167.743-12.94 1.289l-.06-2.738L429.584 367c.08.911.22 1.817.416 2.711z" opacity=".1"/>
            <path fill="#3F3D56" d="M438.09 260.751l-.288 10.18s.36 15.524-.72 17.979C436 291.365 436 301.257 436 301.257s.72 4.69-.073 5.7c-.794 1.01-.214 4.763.36 6.715.575 1.952.073 6.789.073 6.789l-.146 27.29s-.789 7.071-1.802 8.086a2.37 2.37 0 0 0-.574 2.309s-.862 4.04-.648 4.767c.215.728.648 2.382-1.008 3.173-1.655.79-1.227 3.323-1.227 3.323-3.958-.942-15.196 1.591-15.196 1.591a67.844 67.844 0 0 1-3.17-7.73 4.005 4.005 0 0 1 .252-3.287 3.989 3.989 0 0 1 2.63-1.979c1.51-.22-1.08-2.89-1.08-2.89s.287-.36-.434-2.957c-.72-2.596.141-9.272.36-10.98l1.296-10.107s-.575-10.61-.142-11.044c.434-.434 1.87-4.621 1.154-5.993-.715-1.371-1.88-10.395-1.88-10.902 0-.508-.93-12.2-.93-12.2s-.866-8.16-.647-9.893c.22-1.732-.58-8.155-.58-8.155 0-5.368-3.096-11.122-3.096-11.122l-.078.21-6.675 17.627s-1.081 5.34-2.016 8.37a54.852 54.852 0 0 0-1.407 6.271l-.064.386c0 .16-.048.297-.063.405l-.044.293s.487 3.826-.292 5.055c-.78 1.23-1.656 4.91-1.656 5.92 0 1.01.074 4.91.074 4.91s.287 7.725-.487 8.594c-.775.868-.366 1.586-.366 1.586s1.296 5.856.721 7.364c-.575 1.508-.141 5.051-.141 5.051s-1.154 11.195-1.295 11.771c-.142.576-.94 5.056-.073 5.417.866.361 2.517 2.523 2.517 2.523s.365 9.463-.935 10.18c-1.3.718-.58 4.393-.58 4.393s-10.439 2.02-12.815.863c-2.376-1.156-7.494-1.805-7.494-1.805l.716-2.372c-.044.083-.52.854-.862-2.104-.355-3.103 2.669-1.59 2.669-1.59s2.376.58-1.461-3.173c-3.837-3.752-1.948-7.583-1.729-7.583.22 0 .726-5.554.726-5.554s.647-3.324.141-5.925c-.506-2.6-.935-10.687-.935-10.687s.36-6.135-.287-8.37c-.648-2.235.428-6.286.647-7.223.22-.937-.671-9.506-.671-9.506s.72-4.041.287-6.999c-.434-2.957.433-13.864.433-13.864l1.295-12.562s.935-3.904.794-5.49c-.141-1.586 1.086-7.145 1.086-7.145a7.824 7.824 0 0 1 .574-3.465c.721-1.464 1.008-6.207 1.008-6.207l6.92-15.885 3.408-14.007 45.736-.434s.17 1.215.448 3.416c.277 2.201.667 5.47 1.1 9.507.4 3.665.838 7.974 1.261 12.771 1.383 15.314-1.538 18.057-1.538 18.057z"/>
            <path fill="#FBBEBE" d="M434 134.694L423.05 146s-14.05-5.44-12.57-7.297c.57-.72.5-2.994.15-5.499-.5-3.965-1.63-8.525-1.63-8.525s24.555-3.87 22.5.14c-.755 1.45-.625 3.172-.155 4.754a17.671 17.671 0 0 0 2.655 5.12z"/>
            <path fill="#000" d="M431.88 125.826c-.735 1.453-1.086 1.608-.628 3.192-3.124 3.329-7.099 6.982-12.042 6.982a17.117 17.117 0 0 1-7.624-1.778c-.486-3.973-1.586-8.542-1.586-8.542s23.894-3.876 21.88.146z" opacity=".1"/>
            <path fill="#FBBEBE" d="M436 118.202c-.156 9.323-7.722 16.798-17 16.798-9.278 0-16.844-7.475-17-16.798v-.242c.067-9.434 7.73-17.027 17.118-16.96 9.388.067 16.944 7.769 16.877 17.202H436z"/>
            <path fill="#000" d="M438 230.721c-2.259 0-9.787.085-18.202.22h-.102l-2.777.05h-.088c-9.976.164-19.81-1.84-23.752-1.461-8.386.807 3.015-7.977 3.015-7.977a68.319 68.319 0 0 0 19.114 1.994l2.423-.13c7.62-.443 15.284-1.18 19.288-2.417.267 2.283.65 5.598 1.081 9.721z" opacity=".1"/>
            <path fill="#5F5D7E" d="M438 230.721c-2.259 0-9.787.085-18.202.22h-.102l-2.777.05h-.088c-9.976.164-19.81-1.841-23.752-1.462-8.386.813 3.015-7.98 3.015-7.98a68.286 68.286 0 0 0 19.114 1.995l2.423-.13c7.62-.444 15.284-1.182 19.288-2.414.267 2.284.65 5.586 1.081 9.721z"/>
            <path fill="#000" d="M414.225 139.594l-13.11 6.207L391 225s5.982-2.74 9.407-1.01c3.424 1.732 13.967.147 13.967.147s7.707-.434 8.839.434c1.131.868 14.526-3.628 14.526-3.628s2.408-5.48.568-6.338c-1.84-.859.588-9.367.588-9.367l-1.156-57.13-2.283-7.358-6.126-3.75-6.262 5.047-2.99.433-5.853-2.886z" opacity=".1"/>
            <path fill="#E7EFFD" d="M414.22 139.599l-13.107 6.201L391 225s5.98-2.74 9.405-1.01c3.424 1.732 13.965.142 13.965.142s7.704-.429 8.836.434c1.132.863 14.533-3.608 14.533-3.608s2.408-5.48.569-6.338c-1.84-.858.577-9.39.577-9.39l-1.155-57.123-2.283-7.353-6.125-3.754-6.26 5.051-2.99.434-5.852-2.886z"/>
            <path fill="#000" d="M413.315 142.191s3.82 4.569 3.752 5.515c-.069.946-.22 3.191-.22 3.191l-2.884 5.882s-1.584 7.324-1.584 8.848c0 1.525-2.523 14.706-2.523 14.706l-3.036 20.31L403 227.26l3.898 6.74 4.61-3.922 6.129-47.43 1.296-9.354s1.369-16.823 1.369-18.564c0-1.74-.79-6.308-.79-6.308s.936-4.353 4.83-5.393c3.892-1.039-.288-.22-.288-.22L421.817 141l-1.949.794s-5.398-1.632-6.553.397z" opacity=".1"/>
            <path fill="#0D2FCF" d="M413.303 142.162s3.824 4.57 3.751 5.512c-.073.942-.22 3.192-.22 3.192l-2.878 5.885s-1.588 7.326-1.588 8.851c0 1.525-2.524 14.712-2.524 14.712l-3.025 20.31L403 227.253l3.897 6.748 4.613-3.923 6.124-47.444 1.3-9.351s1.37-16.83 1.37-18.571c0-1.74-.79-6.311-.79-6.311s.935-4.355 4.828-5.37c3.892-1.015-.288-.216-.288-.216L421.818 141l-1.948.8s-5.412-1.673-6.567.362z"/>
            <path fill="#000" d="M411.078 134s-.619.444-.77 3.4c-.15 2.955-2.308 9.6-2.308 9.6s8.002-5.317 12-4.728L411.078 134z" opacity=".1"/>
            <path fill="#E7EFFD" d="M411.078 133s-.619.44-.77 3.396C410.158 139.353 408 146 408 146s8.002-5.319 12-4.725L411.078 133z"/>
            <path fill="#000" d="M431.114 132L420 142.48s9.347 5.968 10.565 7.425c1.217 1.456 2.435-14.269 2.435-14.269L431.114 132z" opacity=".1"/>
            <path fill="#E7EFFD" d="M431.101 131L420 141.482s9.34 5.967 10.566 7.423C431.792 150.36 433 134.64 433 134.64l-1.899-3.64z"/>
            <path fill="#000" d="M410.775 134.109s-1.312-.652-2.55 1.235a8.279 8.279 0 0 1-3.575 2.753s-13.282 2.102-13.81 3.842l-6.204.362s-2.19.29-2.407 4.856c-.217 4.567-1.386 5.003-1.386 5.003s-2.555 4.493-2.333 6.81c.222 2.318-1.972 3.484-1.972 3.484l9.119 23.559s.296 9.711-1.386 13.264c-1.682 3.552-4.814 19.28-4.814 19.28s1.312-.288 1.238.579c-.074.867-1.558 10.368-1.558 10.368s-.44 3.768-1.17 5.076c-.73 1.308-.803 8.114-.803 8.114l-1.164 4.93s2.772 6.164 7.003 5.291c4.232-.872 11.891-17.32 11.891-17.32l4.893-17.762 3.793-17.542 1.095-11.887 1.75-26.312 2.555-17.4s2.821-9.363 1.795-10.583z" opacity=".1"/>
            <path fill="#65617D" d="M410.78 133.11s-1.315-.653-2.552 1.229a8.225 8.225 0 0 1-3.57 2.754s-13.26 2.102-13.792 3.841l-6.197.363s-2.182.294-2.404 4.86c-.221 4.567-1.384 4.998-1.384 4.998s-2.551 4.498-2.33 6.816c.222 2.318-1.97 3.479-1.97 3.479l9.113 23.559s.29 9.711-1.384 13.264c-1.675 3.552-4.813 19.285-4.813 19.285s1.31-.294 1.241.579c-.069.872-1.605 10.363-1.605 10.363s-.439 3.773-1.168 5.076c-.729 1.303-.798 8.12-.798 8.12L376 246.623s2.768 6.16 6.994 5.292c4.227-.867 11.89-17.326 11.89-17.326l4.882-17.757 3.788-17.541 1.093-11.892 1.749-26.313 2.551-17.394s2.852-9.354 1.833-10.584z"/>
            <path fill="#000" d="M364 189.964l-4.191 3.02s-6.409.215-10.99-.964l-2.33-1.081-.489-.214.488.158c2.418.75 4.309.734 5.789.214 5.93-2.087 5.275-12.316 5.046-14.628 0-.234-.04-.382-.05-.438a.15.15 0 0 1 0-.031l.035.061a3.379 3.379 0 0 0 .537.694l2.096 4.373v.183l4.059 8.653z" opacity=".1"/>
            <path fill="#65617D" d="M377.84 162l-2.013.585-.286 4.18s-2.366-.367-3.011 2.48c-.645 2.846-1.795 4.184-1.795 4.184s-3.947 3.372-4.16 6.233l-2.425 1.542s-5.668-1.324-6.958-3.669c0 0 2.584 18.927-11.192 14.305 0 0 15.425 6.893 16.143 7.85.717.957 5.45 3.738 9.756 1.393 4.306-2.345 5.237-5.95 5.237-5.95s4.16-5.95 4.301-6.823c.141-.873 3.395-1.91 3.395-1.91L391 171.145 377.84 162z"/>
            <path fill="#000" d="M429.438 141.525l2.07-9.525s.927 3.102 1.859 3.824l3.069 2.384s3.07 1.44 4.14 1.44c1.072 0 6.854 1.516 7.568 2.311.714.795 3.571.215 3.571.215s2.356.795 4.426 1.297c2.07.502 3.07 3.97 2.64 5.365a4.191 4.191 0 0 0 .999 3.901c.859.868 1.288 3.682 1.288 3.682a4.192 4.192 0 0 1 2.414 2.093c.714 1.585.482 5.047.482 5.047l-10.617 15.153s.14 5.853-.285 7.145c-.425 1.293 1.496 23.376 1.496 23.376l2.215 37.948s-2.93 2.527-3.571 2.815c-.642.287-1.284-13.417-1.284-13.924 0-.508-16.49-24.966-16.49-24.966s-2.216-3.604-2.216-4.39c0-.785-2.07-8.08-2.07-8.08L428 184.564l1.438-43.04z" opacity=".1"/>
            <path fill="#65617D" d="M464.997 162.738v.83l-10.629 15.125s.145 5.855-.28 7.143c-.251.756.295 8.523.802 14.905.357 4.601.696 8.48.696 8.48l.942 16.101 1.27 21.858s-2.927 2.528-3.57 2.816c-.642.287-1.285-13.423-1.285-13.93 0-.508-16.513-24.971-16.513-24.971s-2.217-3.616-2.217-4.391c0-.776-2.073-8.085-2.073-8.085L429 184.543l1.425-43.019 1.17-9.524s1.787 3.108 2.714 3.825l3.073 2.381s3.073 1.464 4.145 1.464c1.073 0 6.865 1.512 7.58 2.308.715.795 3.57.214 3.57.214s2.358.796 4.43 1.298c2.073.503 3.078 3.972 2.648 5.367a4.181 4.181 0 0 0 1 3.903c.855.864 1.285 3.68 1.285 3.68a4.215 4.215 0 0 1 2.416 2.097c.512 1.05.56 3.055.54 4.201z"/>
            <path fill="#000" d="M377 354c.374 0 16.298.629 15.996 3.31C392.693 359.99 377 354 377 354zM380 358s10.24 1.908 7.55 3.653C384.86 363.398 380 358 380 358zM419 353s16.173 1.317 13.753 2.99c-2.42 1.671-8.156 1.944-8.409 2.01-.252.065-5.344-5-5.344-5zM416 359s9.696 1.668 9.994 3.592C426.29 364.517 416 359 416 359zM421 317s8.498 2.366 9 4l-9-4zM388.109 323s-4.645 1.149-.147 3.455c4.498 2.306.147-3.455.147-3.455zM410 253c.48 0 8.252-1.484 10.955-.837a29.87 29.87 0 0 0 6.045.667l-17 .17zM409 262.865l-.076.7-6.567 17.172s-1.06 5.201-1.977 8.154A53.132 53.132 0 0 0 399 295l5.83-36 4.17 3.865z" opacity=".1"/>
            <path fill="#3F3D56" d="M420 231.947l-2.472.053h-.078l-1.45-7.858 2.157-.142z"/>
            <path fill="#FBBEBE" d="M453 222.81l-1.735 1.435-5.777 4.848s-15.648 8.5-19.959.426c-3.798-7.111 13.943-12.189 18.215-13.294.579-.148.908-.225.908-.225l8.348 6.81z"/>
            <path fill="#000" d="M385 151s3.192 1.5 3.922 3.549C389.652 156.599 385 151 385 151zM375 173s-5.791 5.55-3.437 7.694C373.918 182.84 375 173 375 173zM458 155s-3.874.415-4 4l4-4zM417 213c.44-.436 10.65-15.227 13-13.918L417 213zM436 118.134a16.923 16.923 0 0 1-2.013 8.03l-.126-.024c-1.076-.227-1.636-1.483-2.462-2.266a3.343 3.343 0 0 0-3.862-.541 3.93 3.93 0 0 0-1.892 3.667c-.545-2.29-.372-4.72-.903-7.016-.53-2.295-2.129-4.614-4.32-4.653-.966 0-2.042.343-2.728-.362-.41-.425-.483-1.097-.801-1.619-1.564-2.531-6.329-1.251-8.275.049-1.945 1.3-4.2 3.382-6.618 4.493.067-9.396 7.73-16.958 17.118-16.892 9.388.067 16.944 7.738 16.877 17.134H436z" opacity=".1"/>
            <path fill="#7C5C5C" d="M417.312 113.255c.31.521.393 1.198.806 1.626.685.715 1.798.346 2.745.365 2.206.039 3.814 2.375 4.348 4.687.535 2.312.36 4.76.909 7.067a3.95 3.95 0 0 1 1.91-3.694 3.362 3.362 0 0 1 3.886.545c.83.788 1.394 2.054 2.478 2.283 1.083.228 2.127-.813 2.521-1.947.393-1.134.364-2.4.622-3.587.486-2.244 1.943-4.089 2.76-6.225.962-2.598.936-5.46-.074-8.04-.539-1.354-1.34-2.57-1.89-3.919-.825-2.053-1.04-4.38-2.05-6.327-1.69-3.275-5.674-4.91-8.953-3.68-1.56.585-2.915 1.724-4.504 2.235-2.123.686-4.397.17-6.593-.137-2.196-.306-4.63-.335-6.398 1.11-2.036 1.67-2.59 4.804-4.504 6.634-.801.769-1.797 1.26-2.643 1.947-.845.686-1.579 1.767-1.457 2.92.126 1.49 1.584 2.842 1.044 4.225-.194.4-.464.76-.796 1.056a15.06 15.06 0 0 0-3.479 5.928c3.843 1.207 8.006-3.042 11.019-5.052 1.928-1.28 6.719-2.575 8.293-.02z"/>
            <path fill="#000" d="M453 222.607L451.18 224c-1.604-2.507-8.18-7.522-8.18-7.522l.286-.26c.607-.144.952-.218.952-.218l8.762 6.607z" opacity=".1"/>
            <path fill="#E7EFFD" d="M455 219.815s-.58 1.671-1.173 3.11c-.593 1.437-1.247 2.754-1.278 1.685-.065-2.096-7.549-9.14-7.549-9.14l1.016-1.143L447.19 213l7.811 6.815z"/>
            <path fill="#000" d="M457 208.624L458 225c-2.36-3.548-8.838-12.639-13-12.346l10.085-11.22c.42-.452.807-.93 1.16-1.434.38 4.68.754 8.624.754 8.624z" opacity=".1"/>
            <path fill="#000" d="M456 218.87s-.646 1.682-1.306 3.13c-2.505-3.603-5.946-7.86-8.694-8.665l1.306-1.335 8.694 6.87z" opacity=".1"/>
            <path fill="#65617D" d="M462.192 160l2.64 2.019s4.395.073 4.836 3.68c.44 3.61 4.459 5.267 4.459 5.267s3.002 2.955 3.002 4.325 2.274 3.822 2.274 4.042c0 .22 2.2 4.617 1.902 5.407-.297.79 2.349 4.257 1.541 5.554a31.782 31.782 0 0 0-1.759 3.608s-3.443 6.495-5.202 7.719c-1.758 1.223-9.824 11.54-9.824 11.54s-8.645 9.811-8.645 12.839c0 0-8.422-13.848-13.416-13.487l9.75-11.039s1.684-1.799 1.759-2.881c.074-1.083 4.691-6.061 6.89-6.276 0 0 .363-2.96-.589-3.032-.95-.074-1.758-2.38-1.758-2.38s-6.44-7.499-6.525-12.263c-.084-4.763 8.665-14.642 8.665-14.642z"/>
            <path fill="#000" d="M466 168s-6.128 4.402-4.816 5.817C462.497 175.23 466 168 466 168zM466 186s11.79-2.25 13 0h-13zM397 377.048s-6.038 4.182-9.054 3.596c-3.017-.586-6.11 1.069-6.11 1.069-2.08 2.402-4.703 4.206-7.622 5.245-4.857 1.746-11.706 1.058-15.587-.309-1.837-.647-1.987-1.48-1.103-2.512 4.221.889 13.65 2.661 16.19 1.372 3.303-1.675 8.048-5.322 8.048-5.322s6.184-.91 7.044-.91c.612 0 5.386-2.085 8.082-3.277l.112 1.048zM434 385l-.065.404s-1.503 3.208-9.707 4.376c-8.203 1.168-8.228-2.7-8.228-2.7s.03-.414.08-1.04c2.606.97 8.289 2.055 17.92-1.04zM388 167s0 16.297-.781 17.906C386.438 186.515 388 167 388 167zM454 172l.95 6s.379-5.89-.95-6z" opacity=".1"/>
            <g fill="#000" opacity=".1">
                <path d="M401.786 109.473c.528-1.359-.86-2.689-1.041-4.145a2.718 2.718 0 0 0-.23 1.31c.093 1.095.9 2.117 1.115 3.134.06-.095.113-.195.156-.299zM425.79 125.05c-.518-2.279-.366-4.694-.894-6.977-.528-2.283-2.156-4.669-4.37-4.708-.978 0-2.074.352-2.763-.362-.42-.43-.489-1.115-.816-1.638-1.584-2.566-6.405-1.266-8.38.05-2.933 1.955-7.02 6.076-10.814 5.147-.181.435-.347.88-.489 1.335 3.867 1.212 8.057-3.056 11.088-5.075 1.956-1.31 6.796-2.61 8.38-.044.312.523.396 1.203.811 1.633.69.719 1.809.347 2.762.367 2.22.039 3.838 2.386 4.376 4.708.538 2.322.362 4.781.914 7.098a3.99 3.99 0 0 1 .196-1.535zM436.664 122.34c-.392 1.145-1.423 2.2-2.538 1.956-1.114-.244-1.657-1.5-2.488-2.297a3.422 3.422 0 0 0-3.911-.543 3.94 3.94 0 0 0-1.922 3.5c.293-.883.9-1.627 1.707-2.092a3.388 3.388 0 0 1 3.91.548c.837.792 1.404 2.063 2.494 2.292 1.09.23 2.141-.816 2.537-1.955a9.88 9.88 0 0 0 .396-2.078c-.047.227-.11.45-.185.67zM440.066 112.485c-.811 2.146-2.288 3.994-2.777 6.253-.097.454-.156.919-.21 1.388.489-2.249 1.956-4.092 2.772-6.233.36-.963.586-1.972.67-2.997-.111.54-.263 1.071-.455 1.589z"/>
            </g>
            <ellipse cx="336" cy="164" fill="#E6E8EC" rx="1" ry="1"/>
            <ellipse cx="399" cy="385.5" fill="#4285F4" opacity=".1" rx="42" ry="4.5"/>
            <path fill="#DCDFED" d="M242.355 104.768L115 187.507l83.11 150.106a5.801 5.801 0 0 0 3.702 2.828l75.304 18.395a5.803 5.803 0 0 0 6.594-3.126L321.063 278 362 223.2l-97.146-115.092c-5.593-6.622-15.228-8.053-22.5-3.34z"/>
            <path fill="#000" d="M365 223.198l-.36.487-23.98 32.102-.433.58-16.163 21.636-31.947 66.47-.896 1.858-4.51 9.378a5.802 5.802 0 0 1-6.603 3.125l-75.302-18.403a5.791 5.791 0 0 1-3.702-2.828l-7.241-13.055-1.3-2.35-52.269-94.436-.448-.805L118 187.507l2.64-1.716 20.01-12.996.462-.302 42.14-27.376 2.658-1.726 59.437-38.616c7.272-4.722 16.915-3.293 22.509 3.335l44.316 52.519 1.948 2.34 32.165 38.105.175.21 16.173 19.154 2.036 2.414.331.346z" opacity=".1"/>
            <path fill="#000" d="M344 201.706l-3.917 27.22-1.18 8.214-.676 17.498-.054 1.366-3.513 91.428a5.8 5.8 0 0 1-7.051 5.43l-37.876-8.458-.408-.092-97.14-21.683-1.783-.399L137 310.302l1.225-82.203.038-2.746.37-24.882.408-27.463 42.05-27.287 2.654-1.721c39.003 4 90.874 11.695 126.014 17.182l1.944 2.333 32.073 37.982.224.209z" opacity=".1"/>
            <path fill="#0D2FCF" d="M349 168.2l-4.613 32.13-4.23 29.423-1.181 8.208-.676 17.525-3.568 92.938a5.81 5.81 0 0 1-2.257 4.37 5.793 5.793 0 0 1-4.797 1.067l-38.298-8.563-97.174-21.716L137 311.236l1.264-85.08.37-24.92.432-29.151.442-29.983c9.13-.433 24.152.545 42.085 2.351 40.155 4.036 94.895 12.2 130.684 17.823C334.192 165.717 349 168.2 349 168.2z"/>
            <path fill="#000" d="M359.972 220.607l-20.61 10.098-105.187 51.534-96.936-80.034L117.643 186 115 187.715l21.873 39.405-1.268 85.128 55.37 12.352 7.236 13.04a5.797 5.797 0 0 0 3.706 2.825l75.395 18.373c2.66.64 5.408-.66 6.597-3.123l4.515-9.366 38.411 8.568a5.821 5.821 0 0 0 4.811-1.068 5.81 5.81 0 0 0 2.264-4.373l3.58-92.99 24.442-32.635.068-.823-2.028-2.42z" opacity=".1"/>
            <path fill="#DCDFED" d="M115.704 187l-8.694 149.386a5.829 5.829 0 0 0 4.54 6.033l230.883 51.446a5.796 5.796 0 0 0 4.7-1.008c1.347-1 2.2-2.536 2.336-4.212L363 222.809 234.886 285.86 115.704 187z"/>
            <path fill="#000" d="M109.479 340.002l119.764-73.73a8.806 8.806 0 0 1 11.197 1.749l107.193 124.75c.39.446.58.126 0 0L109.48 340.001c-.682-.15-.594.355 0 0z" opacity=".1"/>
            <path fill="#E3E5F1" d="M110.623 339.236l118.774-71.892a9.3 9.3 0 0 1 11.845 1.868l106.445 122.661c.362.419.415 1.022.133 1.498a1.282 1.282 0 0 1-1.377.6l-235.435-52.383a1.28 1.28 0 0 1-.385-2.352z"/>
        </g>
    </g>
</svg>
