<svg xmlns="http://www.w3.org/2000/svg" xmlns:xlink="http://www.w3.org/1999/xlink" width="191" height="58" viewBox="0 0 191 58">
    <defs>
        <linearGradient id="a" x1="62.18%" x2="59.496%" y1="8.257%" y2="65.84%">
            <stop offset="0%" stop-color="#5C9BFF"/>
            <stop offset="100%" stop-color="#0828CC"/>
        </linearGradient>
        <linearGradient id="b" x1="50%" x2="50.752%" y1="0%" y2="78.946%">
            <stop offset="0%" stop-color="#79B0FF"/>
            <stop offset="100%" stop-color="#0828CC"/>
        </linearGradient>
        <linearGradient id="c" x1="97.094%" x2="40.604%" y1="27.273%" y2="75.383%">
            <stop offset="0%" stop-color="#66D2AE"/>
            <stop offset="100%" stop-color="#43918F"/>
        </linearGradient>
        <linearGradient id="d" x1="35.746%" x2="69.094%" y1="20.817%" y2="88.853%">
            <stop offset="0%" stop-color="#80D796"/>
            <stop offset="100%" stop-color="#64CB8B"/>
        </linearGradient>
        <radialGradient id="e" cy="47.154%" r="102.394%" fx="50%" fy="47.154%" gradientTransform="matrix(0 .97094 -1 0 .972 -.014)">
            <stop offset="0%" stop-color="#4E90F5"/>
            <stop offset="100%" stop-color="#357DE4"/>
        </radialGradient>
        <ellipse id="f" cx="23.577" cy="18.496" rx="9.578" ry="9.865"/>
        <filter id="g" width="105.2%" height="105.1%" x="-2.6%" y="-2.5%" filterUnits="objectBoundingBox">
            <feGaussianBlur in="SourceAlpha" result="shadowBlurInner1" stdDeviation=".5"/>
            <feOffset in="shadowBlurInner1" result="shadowOffsetInner1"/>
            <feComposite in="shadowOffsetInner1" in2="SourceAlpha" k2="-1" k3="1" operator="arithmetic" result="shadowInnerInner1"/>
            <feColorMatrix in="shadowInnerInner1" values="0 0 0 0 0 0 0 0 0 0 0 0 0 0 0 0 0 0 0.1 0"/>
        </filter>
    </defs>
    <g fill="none" fill-rule="evenodd">
        <g fill-rule="nonzero">
            <path fill="url(#a)" d="M23.445 0L45.2 8.397a3 3 0 0 1 1.863 3.38L44.936 22.55 38.043 35.76 23.91 57.164 6.7 38.672 23.445 0z"/>
            <path fill="url(#b)" d="M23.428 0l.465 57.164L6.695 38.672.571 11.812A3 3 0 0 1 2.39 8.355L23.428 0z"/>
        </g>
        <g fill-rule="nonzero">
            <path fill="url(#c)" d="M34.529 19.125L17.359 36.4 3.2 21.323l4.565-4.303 9.578 9.695L37.84 5.095l-1.634 10.706a6 6 0 0 1-1.676 3.324z" transform="translate(6.63 20.962)"/>
            <path fill="url(#d)" d="M17.342 22.135v14.264L3.19 21.326l-.926-2.86 5.267-6.469z" transform="translate(6.63 20.962)"/>
            <path fill="#FFF" d="M6.726 38.824l3.01 3.464 3.714-3.166a1.2 1.2 0 0 1 1.622.06l8.878 8.776 20.363-20.824.973-6.172L23.95 42.018l-8.865-9.036a1.2 1.2 0 0 0-1.65-.06l-6.71 5.902z"/>
        </g>
        <g fill-rule="nonzero">
            <use fill="url(#e)" xlink:href="#f"/>
            <use fill="#000" filter="url(#g)" xlink:href="#f"/>
        </g>
        <path fill="#FFF" d="M27.501 14.556s-5.411-.225-7.033 2.22a4.884 4.884 0 0 0-.731 1.889 6.13 6.13 0 0 0-.084.79c-.037.91.116 1.736.258 2.285.108-.15.238-.326.393-.522.11-.143.234-.294.367-.452.13-.16.278-.32.425-.488.152-.162.307-.331.47-.496a.02.02 0 0 1 .003-.003c.168-.163.331-.334.509-.49.173-.16.347-.32.527-.465l.191-.16.072-.06.267-.201.256-.194.255-.17c.166-.112.32-.219.472-.302l.406-.238a158.498 158.498 0 0 0 .604-.298l-.254.188-.29.214-.357.304c-.133.107-.266.238-.408.375l-.217.209-.162.174-.054.057-.222.238-.216.256a13.081 13.081 0 0 0-.355.439c-.025.03-.05.062-.073.093-.14.173-.265.36-.394.537l-.01.013c-.128.185-.25.372-.367.55-.112.184-.225.357-.322.528-.1.17-.19.331-.272.482-.164.3-.289.555-.372.733l-.027.06c.615.182 1.613.385 2.672.228.24-.035.483-.089.727-.166.43-.137.86-.346 1.266-.653.722-.546 1.196-1.495 1.506-2.537.074-.25.138-.505.195-.762.456-2.065.38-4.205.38-4.205"/>
        <text fill="#FFF" font-family="AvenirNext-Medium, Avenir Next" font-size="20" font-weight="400">
            <tspan x="63.024" y="32">Spring</tspan> <tspan x="121.844" y="31.66" font-family="AvenirNext-Bold, Avenir Next" font-weight="bold">Verify</tspan>
        </text>
    </g>
</svg>
